<?xml version="1.0" encoding="UTF-8" standalone="no"?>
<!-- Created with Inkscape (http://www.inkscape.org/) -->

<svg
   width="50"
   height="50"
   viewBox="0 0 13.229166 13.229167"
   version="1.1"
   id="svg5"
   inkscape:version="1.2 (dc2aedaf03, 2022-05-15)"
   sodipodi:docname="d10.svg"
   xmlns:inkscape="http://www.inkscape.org/namespaces/inkscape"
   xmlns:sodipodi="http://sodipodi.sourceforge.net/DTD/sodipodi-0.dtd"
   xmlns="http://www.w3.org/2000/svg"
   xmlns:svg="http://www.w3.org/2000/svg">
  <sodipodi:namedview
     id="namedview7"
     pagecolor="#ffffff"
     bordercolor="#000000"
     borderopacity="0.25"
     inkscape:showpageshadow="2"
     inkscape:pageopacity="0.0"
     inkscape:pagecheckerboard="0"
     inkscape:deskcolor="#d1d1d1"
     inkscape:document-units="mm"
     showgrid="false"
     inkscape:zoom="2"
     inkscape:cx="206"
     inkscape:cy="-10.5"
     inkscape:window-width="1920"
     inkscape:window-height="1129"
     inkscape:window-x="1912"
     inkscape:window-y="-8"
     inkscape:window-maximized="1"
     inkscape:current-layer="layer1" />
  <defs
     id="defs2" />
  <g
     inkscape:label="Layer 1"
     inkscape:groupmode="layer"
     id="layer1">
    <path
       id="path20682"
       style="color:#000000;fill:#1d1d1a;stroke-width:0.999996;stroke-linejoin:round;-inkscape-stroke:none"
       d="M 6.5684168,0.70830766 C 4.5977418,2.8560023 2.6665758,5.0394312 0.71350683,7.2030514 2.4719508,9.0200737 4.5291448,10.515872 6.2904058,12.329955 8.3402958,12.263995 9.0563088,9.9546186 10.607112,8.980269 12.036549,8.3519364 12.947726,6.4899859 11.306486,5.5061301 9.6280098,4.007663 8.1783598,2.2784886 6.5684168,0.70830766 Z m 0.0045,0.14016778 C 7.8784008,2.7731623 9.1838448,4.6978482 10.489287,6.6225351 9.2362988,7.7423203 7.9833088,8.8621045 6.7303208,9.9818896 5.4397028,8.9065033 4.1490838,7.8311179 2.8584658,6.7557316 4.0966298,4.7866459 5.3347948,2.8175611 6.5729588,0.84847544 Z m 0.366756,0.36329326 c 1.844429,1.914763 3.6888592,3.829526 5.5332892,5.744289 C 10.483615,7.0847031 9.4447168,5.0939037 8.5818988,3.6307128 8.0484018,2.8150049 7.4767108,2.0251266 6.9397148,1.2117687 Z m -0.725664,0.018354 C 5.0631398,3.0605317 3.9122718,4.8909398 2.7614038,6.7213488 2.1367868,6.8669988 1.5121718,7.0126479 0.88755583,7.1582979 2.6630398,5.1822399 4.4385248,3.2061808 6.2140088,1.2301227 Z m -3.434392,5.5893904 c 1.301262,1.0844809 2.602523,2.1689617 3.903784,3.2534419 0.01424,0.815968 0.02849,1.631936 0.04273,2.447904 C 4.7670108,10.770517 2.8078898,9.0201741 0.84876983,7.2698316 1.4923858,7.1197251 2.1360018,6.9696196 2.7796178,6.8195131 Z M 10.570273,6.6835272 c 0.648462,0.1275532 1.296925,0.2551054 1.945387,0.3826586 -1.896684,1.8167867 -3.7933672,3.6335732 -5.6900512,5.4503592 -0.01423,-0.815109 -0.02846,-1.630217 -0.04268,-2.445326 1.262449,-1.1292306 2.524897,-2.2584612 3.7873472,-3.3876918 z" />
  </g>
</svg>
