<?xml version="1.0" encoding="UTF-8" standalone="no"?>
<!-- Created with Inkscape (http://www.inkscape.org/) -->

<svg
   width="50"
   height="50"
   viewBox="0 0 13.229166 13.229167"
   version="1.1"
   id="svg5"
   inkscape:version="1.2 (dc2aedaf03, 2022-05-15)"
   sodipodi:docname="d100.svg"
   xmlns:inkscape="http://www.inkscape.org/namespaces/inkscape"
   xmlns:sodipodi="http://sodipodi.sourceforge.net/DTD/sodipodi-0.dtd"
   xmlns="http://www.w3.org/2000/svg"
   xmlns:svg="http://www.w3.org/2000/svg">
  <sodipodi:namedview
     id="namedview7"
     pagecolor="#ffffff"
     bordercolor="#000000"
     borderopacity="0.25"
     inkscape:showpageshadow="2"
     inkscape:pageopacity="0.0"
     inkscape:pagecheckerboard="0"
     inkscape:deskcolor="#d1d1d1"
     inkscape:document-units="mm"
     showgrid="false"
     inkscape:zoom="2"
     inkscape:cx="206"
     inkscape:cy="-25.5"
     inkscape:window-width="1920"
     inkscape:window-height="1129"
     inkscape:window-x="1912"
     inkscape:window-y="-8"
     inkscape:window-maximized="1"
     inkscape:current-layer="layer1" />
  <defs
     id="defs2" />
  <g
     inkscape:label="Layer 1"
     inkscape:groupmode="layer"
     id="layer1">
    <path
       id="path20723"
       style="color:#000000;fill:#1d1d1a;stroke-width:1;stroke-linejoin:round;-inkscape-stroke:none"
       d="m 4.9076243,1.9004036 c -1.436193,1.6095591 -2.84007,3.2475077 -4.24616597,4.8833032 1.47583697,1.344776 3.01803197,2.6138171 4.52010597,3.9286972 0.435247,-0.278272 0.85654,-1.1424452 1.447328,-0.7196544 0.492992,0.4179694 0.838128,1.0390784 1.471804,1.2712184 0.739092,0.274061 0.949351,-0.6734 1.443041,-0.996898 C 10.560265,9.2754823 11.564824,8.2708569 12.567708,7.2651241 11.086283,5.6978301 9.5301683,4.2038897 8.0134193,2.6713071 7.5714533,2.9590498 7.2933483,3.8899473 6.6759363,3.6599888 6.1190623,3.2958371 5.8366523,2.6458121 5.2919243,2.2656502 5.1651253,2.1425432 5.0371793,2.0206104 4.9076243,1.9004036 Z m 0.0034,0.1411476 c 0.537984,0.7633043 1.075966,1.5266086 1.61395,2.2899129 -0.923986,1.074123 -1.866405,2.1323875 -2.778525,3.2167042 C 3.2598723,7.1576067 2.6808023,6.8547508 2.3166213,6.3327877 3.1814363,4.9023749 4.0462563,3.4719658 4.9110673,2.0415512 Z m 0.367942,0.3485118 c 0.522283,0.5237993 1.044566,1.0475995 1.566849,1.5713988 C 6.1720183,4.3825918 6.0495433,3.1583449 5.6070493,2.8594546 5.4962803,2.703971 5.3929733,2.5432516 5.2789663,2.390063 Z m -0.712438,0.030525 c -0.795999,1.3166095 -1.591999,2.6332181 -2.387998,3.9498277 -0.280452,0.060446 -1.154458,0.4805062 -1.030525,-0.03191 1.16024,-1.2873005 2.278257,-2.6127889 3.418523,-3.9179137 z m 3.429406,0.3833816 C 8.9743013,4.193571 9.9526703,5.5831728 10.931037,6.9727747 10.030332,7.8071338 9.1296263,8.641493 8.2289213,9.4758521 7.2722073,8.7063555 6.3154943,7.9368588 5.3587803,7.1673621 6.2378323,5.7128978 7.1168823,4.2584335 7.9959343,2.8039696 Z m -0.342989,0.3794775 c -0.79698,1.3178373 -1.59396,2.6356756 -2.390941,3.953513 -0.314013,0.018493 -1.054729,0.4664285 -1.10089,0.056589 1.178406,-1.3240524 2.326291,-2.6748008 3.491831,-4.010102 z m 0.713202,-0.023321 C 9.7017093,4.4988668 11.037271,5.8376065 12.372833,7.1763471 11.740019,7.0780824 10.917283,7.0536603 10.612451,6.3765367 9.8862893,5.2898375 9.1133383,4.2330858 8.3661473,3.1601261 Z m -6.168869,3.3074446 c 0.967065,0.7776661 1.93413,1.5553312 2.901194,2.3329973 0.0205,0.587047 0.041,1.1740929 0.0615,1.76114 C 3.7106703,9.3130771 2.2613693,8.0644475 0.81206733,6.8158169 1.2738043,6.6997345 1.7355423,6.583653 2.1972783,6.4675707 Z m 3.086524,0.7659268 c 0.966025,0.7771902 1.932049,1.5543795 2.898074,2.3315699 0.02053,0.5878986 0.04106,1.1757976 0.06159,1.7636956 C 6.7958673,10.079583 5.3482693,8.8304038 3.9006703,7.5812234 4.3617143,7.4653147 4.8227583,7.349406 5.2838023,7.2334975 Z M 11.010447,7.0335187 c 0.468005,0.083466 0.936012,0.1669311 1.404018,0.2503967 C 11.057532,8.6310321 9.7005973,9.9781479 8.3436643,11.325264 8.3231343,10.737366 8.3026043,10.149467 8.2820743,9.5615686 9.1915313,8.7188849 10.100988,7.8762023 11.010446,7.0335187 Z M 5.1984413,8.8344416 c 0.320517,0.2766319 0.641035,0.5532629 0.961552,0.8298949 -0.300433,0.2984864 -0.600868,0.5969725 -0.901302,0.8954595 -0.02008,-0.5751186 -0.04017,-1.150236 -0.06025,-1.7253544 z" />
  </g>
</svg>
