<?xml version="1.0" encoding="UTF-8" standalone="no"?>
<!-- Created with Inkscape (http://www.inkscape.org/) -->

<svg
   width="50"
   height="50"
   viewBox="0 0 13.229166 13.229167"
   version="1.1"
   id="svg5"
   inkscape:version="1.2 (dc2aedaf03, 2022-05-15)"
   sodipodi:docname="d12.svg"
   xmlns:inkscape="http://www.inkscape.org/namespaces/inkscape"
   xmlns:sodipodi="http://sodipodi.sourceforge.net/DTD/sodipodi-0.dtd"
   xmlns="http://www.w3.org/2000/svg"
   xmlns:svg="http://www.w3.org/2000/svg">
  <sodipodi:namedview
     id="namedview7"
     pagecolor="#ffffff"
     bordercolor="#000000"
     borderopacity="0.25"
     inkscape:showpageshadow="2"
     inkscape:pageopacity="0.0"
     inkscape:pagecheckerboard="0"
     inkscape:deskcolor="#d1d1d1"
     inkscape:document-units="mm"
     showgrid="false"
     inkscape:zoom="2"
     inkscape:cx="206"
     inkscape:cy="-25.5"
     inkscape:window-width="1920"
     inkscape:window-height="1129"
     inkscape:window-x="1912"
     inkscape:window-y="-8"
     inkscape:window-maximized="1"
     inkscape:current-layer="layer1" />
  <defs
     id="defs2" />
  <g
     inkscape:label="Layer 1"
     inkscape:groupmode="layer"
     id="layer1">
    <path
       id="path20800"
       style="color:#000000;fill:#1d1d1a;stroke-width:0.864536;stroke-linejoin:round"
       d="m 6.4249663,0.49165076 c -1.23626,0.65608774 -2.8253,0.61466444 -3.82851,1.69077434 -0.4173,0.6015516 -0.84,1.2027035 -1.267587,1.7987691 -0.48841003,0.6954877 -0.83670003,1.5808701 -0.58139003,2.4303 -0.172282,1.4282521 0.212935,2.9826633 1.30254703,3.9741918 0.30809,0.406413 0.54037,0.911551 1.0101,1.183728 0.96439,0.651028 2.15474,0.757096 3.23284,1.124227 1.30522,0.249142 2.41832,-0.628012 3.60741,-0.990901 0.5440097,-0.07808 0.7578197,-0.677122 1.1240597,-1.029227 0.66507,-0.8311181 1.32229,-1.7283464 1.54327,-2.7912304 C 12.366616,6.6082659 12.826236,5.2054243 12.097616,4.044314 11.805646,3.6916705 11.508026,3.3493225 11.256886,2.9627472 10.554716,1.969284 9.5296363,1.0551065 8.2539563,1.0131583 7.6446263,0.8381735 7.0351363,0.66366932 6.4249663,0.49165076 Z m -0.0455,0.11707853 c 0.24402,0.73628241 -0.34838,1.37587401 -0.93106,1.72769861 -0.62209,0.3662403 -1.14361,0.8580384 -1.72818,1.2714321 -0.70474,0.5558169 -1.32999,1.4075191 -2.300877,1.4538708 -0.85595503,-0.1581065 -0.0625,-1.0223492 0.255387,-1.3519314 0.50036,-0.4776313 0.55453,-1.2564182 1.1552,-1.653157 0.88417,-0.6655707 2.01891,-0.8125124 3.01285,-1.25245796 0.1789,-0.0651567 0.35778,-0.13030919 0.53668,-0.19545515 z m 0.0992,-0.002958 c 1.18755,0.34062199 2.37509,0.68124301 3.5626397,1.02186501 0.60851,0.9950365 1.62605,1.7201195 2.05921,2.8215625 -0.13786,0.6299775 -1.20096,0.1791233 -1.55212,-0.1774852 C 9.2076363,3.355406 7.8564263,2.4539926 6.5114163,1.543732 c -0.0109,-0.3126532 -0.0218,-0.62530745 -0.0328,-0.93796071 z m -0.0139,1.02418171 c 1.61123,1.0868017 3.22246,2.1736034 4.8336897,3.2604051 -0.53584,1.8683856 -1.07167,3.7367738 -1.6075097,5.6051589 -1.94237,0.06766 -3.88474,0.13532 -5.82711,0.20298 -0.66468,-1.8262949 -1.32937,-3.6525865 -1.99406,-5.4788824 1.53166,-1.1965539 3.06333,-2.3931077 4.59499,-3.5896616 z M 0.79715027,5.0367312 C 1.4469893,4.8877383 1.9379863,5.4724701 2.0855463,6.0459968 c 0.53207,1.5760345 1.13139,3.1292444 1.69067,4.6960492 -0.0394,0.657147 -0.95348,1.024524 -1.13574,0.23282 -0.48462,-0.946928 -1.611195,-1.5538695 -1.72933903,-2.6866808 -0.038,-1.0838177 -0.07599,-2.1676363 -0.113987,-3.251454 z M 12.355246,4.6356602 c 0.0433,1.2364431 0.0867,2.4728862 0.13003,3.7093292 -0.74211,0.8686943 -1.11624,2.0210976 -1.98461,2.7838026 C 9.8848263,11.37766 9.7629363,10.168526 9.9766563,9.7237587 10.177636,9.115188 10.422446,8.5202003 10.540456,7.8885712 c 0.28478,-0.9929227 0.56957,-1.9858469 0.85435,-2.9787706 0.32015,-0.091379 0.64029,-0.1827602 0.96044,-0.2741404 z M 3.8591063,10.796942 c 1.94827,-0.06804 3.89654,-0.13607 5.84481,-0.204105 0.6771197,0.314132 0.4747697,1.174243 -0.24835,1.236089 -0.91125,0.229843 -1.75074,0.6844 -2.66833,0.896608 -1.16687,-0.334646 -2.33373,-0.669294 -3.50061,-1.00394 0.19083,-0.308222 0.38169,-0.616417 0.57248,-0.924652 z" />
  </g>
</svg>
