<?xml version="1.0" encoding="UTF-8" standalone="no"?>
<!-- Created with Inkscape (http://www.inkscape.org/) -->

<svg
   width="50"
   height="50"
   viewBox="0 0 13.229166 13.229167"
   version="1.1"
   id="svg5"
   inkscape:version="1.2 (dc2aedaf03, 2022-05-15)"
   sodipodi:docname="d20.svg"
   xmlns:inkscape="http://www.inkscape.org/namespaces/inkscape"
   xmlns:sodipodi="http://sodipodi.sourceforge.net/DTD/sodipodi-0.dtd"
   xmlns="http://www.w3.org/2000/svg"
   xmlns:svg="http://www.w3.org/2000/svg">
  <sodipodi:namedview
     id="namedview7"
     pagecolor="#ffffff"
     bordercolor="#000000"
     borderopacity="0.25"
     inkscape:showpageshadow="2"
     inkscape:pageopacity="0.0"
     inkscape:pagecheckerboard="0"
     inkscape:deskcolor="#d1d1d1"
     inkscape:document-units="mm"
     showgrid="false"
     inkscape:zoom="2"
     inkscape:cx="206"
     inkscape:cy="-25.5"
     inkscape:window-width="1920"
     inkscape:window-height="1129"
     inkscape:window-x="1912"
     inkscape:window-y="-8"
     inkscape:window-maximized="1"
     inkscape:current-layer="layer1" />
  <defs
     id="defs2" />
  <g
     inkscape:label="Layer 1"
     inkscape:groupmode="layer"
     id="layer1">
    <path
       id="path20857"
       style="color:#000000;fill:#1d1d1a;stroke-width:0.877036;stroke-linejoin:round;-inkscape-stroke:none"
       d="m 6.9404706,0.37663789 c -1.80208,1.14950711 -4.44389,1.75893981 -5.69749,3.27952111 0.0766,2.0126058 -0.69270001,4.493763 0.009,6.2126173 2.14193,0.8001907 4.14348,4.1737597 6.43422,2.5452817 1.95645,-1.197621 5.1737104,-1.598608 4.4086904,-4.5708449 -0.0547,-1.9097302 1.00389,-4.3871173 -1.46146,-5.0788716 C 9.4065006,1.9623258 8.1718306,1.1722574 6.9407606,0.37663789 Z m 0.0428,0.13747694 L 11.784711,3.6329809 6.9233606,1.6573525 Z m -0.0994,-0.003711 c 0.14176,1.99607947 -2.6158,1.56870487 -3.84773,2.24798587 -2.02052,0.5473442 1.14072,-0.8062924 1.76352,-1.1859583 0.69474,-0.3540092 1.38947,-0.70801889 2.08421,-1.06202757 z m -0.12514,1.26524507 c -1.54512,2.3786656 -3.09023,4.7573377 -4.63535,7.1360032 -0.0316,-1.8022069 -1.01303,-4.2209584 -0.48158,-5.6576244 1.70564,-0.4927934 3.41129,-0.9855853 5.11693,-1.4783788 z m 0.21865,0.013556 c 1.58009,0.8856113 4.2311804,1.2254554 5.1297404,2.4583618 -0.46897,1.5083249 -0.81747,4.0654617 -1.35921,4.9402747 C 9.4910706,6.7216295 8.2342206,4.2554177 6.9773806,1.7892054 Z m -0.11104,0.00137 c 1.28797,2.5278338 2.57595,5.0556631 3.8639204,7.5834969 L 2.2308506,8.9291535 c 1.54517,-2.3795242 3.09032,-4.7590539 4.63549,-7.1385781 z m -5.54841,2.0339767 0.71902,5.1997348 C 0.02860059,10.441673 1.7668706,5.602859 1.2981906,4.1998793 Z m 10.8551804,0.5719925 -0.30008,5.7161584 c -1.77895,0.05524 -0.1567,-2.9012225 -0.0647,-4.2381416 0.12082,-0.4928705 0.24116,-0.9858494 0.36479,-1.4780168 z m -1.36106,5.0814313 C 9.2263306,10.42901 7.5673306,12.595523 6.0196706,12.762112 c -1.04791,-1.173369 -3.34201,-2.8839056 -3.609,-3.7234568 2.80046,0.1463622 5.60095,0.2930856 8.4013804,0.4393207 z m -8.7296704,-0.3651121 3.78321,3.6379172 c -1.35238,-1.074172 -4.02092,-2.217455 -4.54844,-3.2483225 0.25508,-0.1298642 0.51016,-0.2597339 0.76523,-0.3895947 z m 8.7763104,0.4599471 c 1.05807,1.0985131 -0.0669,0.9306931 -2.8045804,2.5416551 -1.21873,0.733595 -1.24188,0.513822 -0.25378,-0.161202 1.01946,-0.793484 2.0389,-1.586969 3.0583604,-2.3804531 z"
       sodipodi:nodetypes="ccccccccccccccccccccccccccccccccccccccccccccccc" />
  </g>
</svg>
