<?xml version="1.0" encoding="UTF-8" standalone="no"?>
<!-- Created with Inkscape (http://www.inkscape.org/) -->

<svg
   width="50"
   height="50"
   viewBox="0 0 13.229166 13.229167"
   version="1.1"
   id="svg5"
   inkscape:version="1.2 (dc2aedaf03, 2022-05-15)"
   sodipodi:docname="d6.svg"
   xmlns:inkscape="http://www.inkscape.org/namespaces/inkscape"
   xmlns:sodipodi="http://sodipodi.sourceforge.net/DTD/sodipodi-0.dtd"
   xmlns="http://www.w3.org/2000/svg"
   xmlns:svg="http://www.w3.org/2000/svg">
  <sodipodi:namedview
     id="namedview7"
     pagecolor="#ffffff"
     bordercolor="#000000"
     borderopacity="0.25"
     inkscape:showpageshadow="2"
     inkscape:pageopacity="0.0"
     inkscape:pagecheckerboard="0"
     inkscape:deskcolor="#d1d1d1"
     inkscape:document-units="mm"
     showgrid="false"
     inkscape:zoom="2"
     inkscape:cx="206"
     inkscape:cy="-25.5"
     inkscape:window-width="1920"
     inkscape:window-height="1129"
     inkscape:window-x="1912"
     inkscape:window-y="-8"
     inkscape:window-maximized="1"
     inkscape:current-layer="layer1" />
  <defs
     id="defs2" />
  <g
     inkscape:label="Layer 1"
     inkscape:groupmode="layer"
     id="layer1">
    <path
       style="color:#000000;fill:#1d1d1a;stroke-width:1.0336;stroke-linejoin:round;-inkscape-stroke:none"
       d="M 12.106079,1.4886919 C 8.5803534,1.3656389 5.0546274,1.2425869 1.5289024,1.1195339 1.7064694,4.2611867 0.74618142,7.399672 1.2939314,10.529055 c 0.121637,0.740617 0.421068,1.544597 1.321049,1.262845 2.986393,0.05976 6.0031,0.625495 8.9713866,0.08769 0.421078,-0.798582 0.163866,-1.9400399 0.308255,-2.8735204 0.109732,-2.5044881 0.178081,-5.0107305 0.211452,-7.5173769 z m -0.0531,0.097756 C 11.931003,5.0787275 11.809029,8.571006 11.687054,12.063286 8.5068034,11.616484 5.2380614,12.341525 2.0971744,11.54877 c -0.423195,-0.138103 -1.048452,-0.23506 -0.854123,-0.805108 0.111029,-3.1743746 0.222059,-6.3487495 0.333088,-9.5231244 3.49228,0.1219701 6.98456,0.2439402 10.4768396,0.3659103 z"
       id="path20658" />
  </g>
</svg>
