<?xml version="1.0" encoding="UTF-8" standalone="no"?>
<!-- Created with Inkscape (http://www.inkscape.org/) -->

<svg
   width="50"
   height="50"
   viewBox="0 0 13.229166 13.229167"
   version="1.1"
   id="svg5"
   inkscape:version="1.2 (dc2aedaf03, 2022-05-15)"
   sodipodi:docname="d8.svg"
   xmlns:inkscape="http://www.inkscape.org/namespaces/inkscape"
   xmlns:sodipodi="http://sodipodi.sourceforge.net/DTD/sodipodi-0.dtd"
   xmlns="http://www.w3.org/2000/svg"
   xmlns:svg="http://www.w3.org/2000/svg">
  <sodipodi:namedview
     id="namedview7"
     pagecolor="#ffffff"
     bordercolor="#000000"
     borderopacity="0.25"
     inkscape:showpageshadow="2"
     inkscape:pageopacity="0.0"
     inkscape:pagecheckerboard="0"
     inkscape:deskcolor="#d1d1d1"
     inkscape:document-units="mm"
     showgrid="false"
     inkscape:zoom="2"
     inkscape:cx="206"
     inkscape:cy="-22"
     inkscape:window-width="1920"
     inkscape:window-height="1129"
     inkscape:window-x="1912"
     inkscape:window-y="-8"
     inkscape:window-maximized="1"
     inkscape:current-layer="layer1" />
  <defs
     id="defs2" />
  <g
     inkscape:label="Layer 1"
     inkscape:groupmode="layer"
     id="layer1">
    <path
       id="path20545"
       style="color:#000000;fill:#1d1d1a;stroke-width:1;stroke-linejoin:round;-inkscape-stroke:none"
       d="m 6.7588365,0.29331366 c -1.48463,1.82669294 -4.112232,3.06694324 -4.690632,5.38723174 -0.586434,1.8256043 -1.76010596,4.5866986 0.928983,5.2463036 1.821466,0.998229 3.634675,3.012967 5.521687,1.028431 C 10.125004,10.984629 12.981941,10.293319 11.714556,7.8708822 11.428542,6.1178073 11.142957,4.2632046 9.5435215,3.161979 8.5952985,2.2259026 7.7059115,1.2312444 6.7588365,0.29331366 Z m -0.0031,0.1482494 C 8.4988425,3.5861736 10.241952,6.7307851 11.985061,9.8753956 8.3898125,9.8128118 4.7945645,9.7502279 1.1993175,9.687644 3.0514555,6.6056173 4.9035955,3.5235897 6.7557335,0.44156306 Z m 0.231599,0.21362303 C 8.3306525,2.0605607 9.6739745,3.4659353 11.017296,4.8713099 11.331051,6.4554204 11.644805,8.0395319 11.95856,9.6236424 10.301484,6.6341573 8.6444075,3.6446712 6.9873325,0.65518609 Z m -0.473148,-0.004672 C 4.7543135,3.5796701 2.9944425,6.5088266 1.2345715,9.4379821 1.6042865,7.8652864 1.9740015,6.2925907 2.3437165,4.719895 3.7338715,3.3634352 5.1240285,2.0069744 6.5141845,0.65051455 Z M 1.2984985,9.7877118 c 3.527806,0.061749 7.055611,0.1234999 10.5834165,0.1852494 -1.781251,0.9876308 -3.5625035,1.9752608 -5.3437545,2.9628918 -1.746554,-1.04938 -3.493107,-2.098761 -5.239662,-3.1481412 z" />
  </g>
</svg>
