<?xml version="1.0" encoding="UTF-8" standalone="no"?>
<!-- Created with Inkscape (http://www.inkscape.org/) -->

<svg
   width="50"
   height="50"
   viewBox="0 0 13.229166 13.229167"
   version="1.1"
   id="svg5"
   inkscape:version="1.2 (dc2aedaf03, 2022-05-15)"
   sodipodi:docname="dice.svg"
   xmlns:inkscape="http://www.inkscape.org/namespaces/inkscape"
   xmlns:sodipodi="http://sodipodi.sourceforge.net/DTD/sodipodi-0.dtd"
   xmlns="http://www.w3.org/2000/svg"
   xmlns:svg="http://www.w3.org/2000/svg">
  <sodipodi:namedview
     id="namedview7"
     pagecolor="#ffffff"
     bordercolor="#000000"
     borderopacity="0.25"
     inkscape:showpageshadow="2"
     inkscape:pageopacity="0.0"
     inkscape:pagecheckerboard="0"
     inkscape:deskcolor="#d1d1d1"
     inkscape:document-units="mm"
     showgrid="false"
     inkscape:zoom="2"
     inkscape:cx="182.25"
     inkscape:cy="29"
     inkscape:window-width="1920"
     inkscape:window-height="1129"
     inkscape:window-x="1912"
     inkscape:window-y="-8"
     inkscape:window-maximized="1"
     inkscape:current-layer="layer1" />
  <defs
     id="defs2" />
  <g
     inkscape:label="Layer 1"
     inkscape:groupmode="layer"
     id="layer1">
    <path
       sodipodi:type="star"
       style="opacity:1;fill:none;stroke:#1d1d1a;stroke-width:0.105327;stroke-linecap:butt;stroke-linejoin:round;stroke-opacity:1"
       id="path273"
       inkscape:flatsided="true"
       sodipodi:sides="3"
       sodipodi:cx="5.6682625"
       sodipodi:cy="6.614583"
       sodipodi:r1="7.2402835"
       sodipodi:r2="3.620142"
       sodipodi:arg1="0.52359878"
       sodipodi:arg2="1.5707963"
       inkscape:rounded="0"
       inkscape:randomized="0"
       d="m 11.938532,10.234725 -12.54053897,0 6.27026947,-10.86042547 z"
       inkscape:transform-center-y="-1.7185192"
       transform="matrix(0.94942092,0,0,0.94942092,20.679891,-42.264629)" />
    <path
       sodipodi:type="star"
       style="opacity:1;fill:none;stroke:#1d1d1a;stroke-width:0.0967494;stroke-linecap:butt;stroke-linejoin:round;stroke-opacity:1"
       id="path1010"
       inkscape:flatsided="true"
       sodipodi:sides="4"
       sodipodi:cx="5.6682625"
       sodipodi:cy="6.614583"
       sodipodi:r1="7.2402835"
       sodipodi:r2="3.620142"
       sodipodi:arg1="0.52359878"
       sodipodi:arg2="1.3089969"
       inkscape:rounded="0"
       inkscape:randomized="0"
       d="M 11.938532,10.234725 2.0481207,12.884852 -0.60200693,2.9944412 9.2884043,0.3443136 Z"
       inkscape:transform-center-y="-1.8071379"
       transform="matrix(0.99837956,0.267515,-0.267515,0.99837956,37.523972,-45.823333)"
       inkscape:transform-center-x="-0.48422033" />
    <g
       id="g1380"
       transform="matrix(0.97427848,0,0,1.2696359,20.719284,-44.866251)"
       style="fill:none;stroke:#1d1d1a;stroke-width:0.0899123;stroke-opacity:1">
      <path
         id="path1016"
         style="opacity:1;fill:none;stroke:#1d1d1a;stroke-width:0.10654;stroke-linejoin:round;stroke-opacity:1"
         inkscape:transform-center-x="0.76378644"
         inkscape:transform-center-y="-1.3229165"
         transform="matrix(0.73086456,-0.42196485,0.42196485,0.73086456,45.905163,4.6211482)"
         d="M 12.57301,9.1357778 3.7324392,9.967527 0.03247054,1.895494 9.2884043,0.3443136 Z"
         sodipodi:nodetypes="ccccc" />
      <path
         id="path1044"
         style="opacity:1;fill:none;stroke:#1d1d1a;stroke-width:0.150213;stroke-linejoin:round;stroke-opacity:1"
         inkscape:transform-center-y="-1.0183817"
         transform="matrix(0.6368089,0,0,0.5626198,49.229417,1.3054462)"
         d="M 11.938532,7.7108495 5.6682625,12.413551 -0.60200697,7.7108495 5.6682625,-0.62570047 Z"
         sodipodi:nodetypes="ccccc" />
      <path
         style="opacity:1;fill:none;stroke:#1d1d1a;stroke-width:0.0899123;stroke-linecap:round;stroke-linejoin:round;stroke-opacity:1"
         d="M 52.839017,8.2895558 V 10.331102"
         id="path1206"
         sodipodi:nodetypes="cc" />
      <path
         style="opacity:1;fill:none;stroke:#1d1d1a;stroke-width:0.0899123;stroke-linecap:round;stroke-linejoin:round;stroke-opacity:1"
         d="M 48.846054,5.6437228 46.728726,5.9927962"
         id="path1208"
         sodipodi:nodetypes="cc" />
      <path
         style="opacity:1;fill:none;stroke:#1d1d1a;stroke-width:0.0899123;stroke-linecap:round;stroke-linejoin:round;stroke-opacity:1"
         d="m 56.83198,5.6437228 2.117328,0.3490733"
         id="path1210"
         sodipodi:nodetypes="cc" />
    </g>
    <g
       id="g1389"
       transform="matrix(1.0244171,0,0,1.0244171,32.785659,-46.522899)"
       style="fill:none;stroke:#1d1d1a;stroke-width:0.0976165;stroke-opacity:1">
      <path
         sodipodi:type="star"
         style="opacity:1;fill:none;stroke:#1d1d1a;stroke-width:0.115669;stroke-linecap:butt;stroke-linejoin:round;stroke-opacity:1"
         id="path1012"
         inkscape:flatsided="true"
         sodipodi:sides="10"
         sodipodi:cx="5.6682625"
         sodipodi:cy="6.614583"
         sodipodi:r1="7.2402835"
         sodipodi:r2="3.620142"
         sodipodi:arg1="0.52359878"
         sodipodi:arg2="0.83775805"
         inkscape:rounded="0"
         inkscape:randomized="0"
         d="M 11.938532,10.234725 8.6131511,13.228911 4.1629229,13.696649 0.28768325,11.459278 -1.532358,7.3713987 -0.60200693,2.9944412 2.7233739,2.5490885e-4 7.1736021,-0.4674829 11.048842,1.7698878 12.868883,5.8577673 Z"
         inkscape:transform-center-y="-0.2374207"
         transform="matrix(-0.42196485,-0.73086456,0.73086456,-0.42196485,68.261193,15.543237)"
         inkscape:transform-center-x="1.3229164" />
      <path
         sodipodi:type="star"
         style="opacity:1;fill:none;stroke:#1d1d1a;stroke-width:0.141275;stroke-linecap:butt;stroke-linejoin:round;stroke-opacity:1"
         id="path1227"
         inkscape:flatsided="true"
         sodipodi:sides="5"
         sodipodi:cx="5.6682625"
         sodipodi:cy="6.614583"
         sodipodi:r1="7.2402835"
         sodipodi:r2="3.620142"
         sodipodi:arg1="0.52359878"
         sodipodi:arg2="1.1519173"
         inkscape:rounded="0"
         inkscape:randomized="0"
         d="M 11.938532,10.234725 4.1629229,13.696649 -1.532358,7.3713987 2.7233739,2.5490885e-4 11.048842,1.7698878 Z"
         inkscape:transform-center-y="-0.19438832"
         transform="matrix(-0.34548466,-0.598397,0.598397,-0.34548466,68.703901,14.205473)"
         inkscape:transform-center-x="1.0831402" />
      <path
         style="opacity:1;fill:none;stroke:#1d1d1a;stroke-width:0.0976165;stroke-linecap:round;stroke-linejoin:round;stroke-opacity:1"
         d="M 70.70375,2.499093 V 3.5255505"
         id="path1281"
         sodipodi:nodetypes="cc" />
      <path
         style="opacity:1;fill:none;stroke:#1d1d1a;stroke-width:0.0976165;stroke-linecap:round;stroke-linejoin:round;stroke-opacity:1"
         d="m 64.892518,6.7211997 1.053273,0.2285407"
         id="path1283"
         sodipodi:nodetypes="cc" />
      <path
         style="opacity:1;fill:none;stroke:#1d1d1a;stroke-width:0.0976165;stroke-linecap:round;stroke-linejoin:round;stroke-opacity:1"
         d="M 75.461708,6.9824099 76.514981,6.7211998"
         id="path1285"
         sodipodi:nodetypes="cc" />
      <path
         style="opacity:1;fill:none;stroke:#1d1d1a;stroke-width:0.0976165;stroke-linecap:round;stroke-linejoin:round;stroke-opacity:1"
         d="m 73.64433,12.575726 0.650958,0.976986"
         id="path1287"
         sodipodi:nodetypes="cc" />
      <path
         style="opacity:1;fill:none;stroke:#1d1d1a;stroke-width:0.0976165;stroke-linecap:round;stroke-linejoin:round;stroke-opacity:1"
         d="m 67.763169,12.575726 -0.650958,0.976986"
         id="path1289"
         sodipodi:nodetypes="cc" />
    </g>
    <g
       id="g1397"
       transform="matrix(1.0392305,0,0,1.0392305,27.919817,-46.427473)"
       style="fill:none;stroke:#1d1d1a;stroke-width:0.096225;stroke-opacity:1">
      <path
         sodipodi:type="star"
         style="opacity:1;fill:none;stroke:#1d1d1a;stroke-width:0.11402;stroke-linecap:butt;stroke-linejoin:round;stroke-opacity:1"
         id="path1014"
         inkscape:flatsided="true"
         sodipodi:sides="6"
         sodipodi:cx="5.6682625"
         sodipodi:cy="6.614583"
         sodipodi:r1="7.2402835"
         sodipodi:r2="3.620142"
         sodipodi:arg1="0.52359878"
         sodipodi:arg2="1.0471976"
         inkscape:rounded="0"
         inkscape:randomized="0"
         d="m 11.938532,10.234725 -6.2702696,3.620142 -6.27026937,-3.620142 4e-8,-7.2402838 6.27026943,-3.62014167 6.2702695,3.62014177 z"
         inkscape:transform-center-y="-0.23742019"
         transform="matrix(-0.42196485,-0.73086456,0.73086456,-0.42196485,87.550889,15.328862)"
         inkscape:transform-center-x="1.3229167" />
      <path
         sodipodi:type="star"
         style="opacity:1;fill:none;stroke:#1d1d1a;stroke-width:0.11402;stroke-linecap:butt;stroke-linejoin:round;stroke-opacity:1"
         id="path1335"
         inkscape:flatsided="false"
         sodipodi:sides="3"
         sodipodi:cx="5.6682625"
         sodipodi:cy="6.614583"
         sodipodi:r1="5.7922268"
         sodipodi:r2="7.2402835"
         sodipodi:arg1="0.52359878"
         sodipodi:arg2="1.5707963"
         inkscape:rounded="0"
         inkscape:randomized="0"
         d="M 10.684478,9.5106964 5.6682627,13.854867 0.65204692,9.5106964 -0.60200705,2.9944414 5.6682625,0.82235622 11.938532,2.9944411 Z"
         inkscape:transform-center-y="0.95408622"
         transform="matrix(-0.42196485,-0.73086456,0.73086456,-0.42196485,87.550889,15.328862)"
         inkscape:transform-center-x="2.0108334" />
      <path
         sodipodi:type="star"
         style="opacity:1;fill:none;stroke:#1d1d1a;stroke-width:0.144046;stroke-linecap:butt;stroke-linejoin:round;stroke-opacity:1"
         id="path1363"
         inkscape:flatsided="true"
         sodipodi:sides="3"
         sodipodi:cx="5.6682625"
         sodipodi:cy="6.614583"
         sodipodi:r1="7.2402835"
         sodipodi:r2="3.620142"
         sodipodi:arg1="0.52359878"
         sodipodi:arg2="1.5707963"
         inkscape:rounded="0"
         inkscape:randomized="0"
         d="m 11.938532,10.234725 -12.54053897,0 6.27026947,-10.86042547 z"
         inkscape:transform-center-y="-2.0016614"
         transform="matrix(-0.33400745,-0.57851788,0.57851788,-0.33400745,88.060033,13.831905)" />
      <path
         style="opacity:1;fill:none;stroke:#1d1d1a;stroke-width:0.096225;stroke-linecap:round;stroke-linejoin:round;stroke-opacity:1"
         d="M 89.993446,2.284718 V 3.5067765"
         id="path1365"
         sodipodi:nodetypes="cc" />
      <path
         style="opacity:1;fill:none;stroke:#1d1d1a;stroke-width:0.096225;stroke-linecap:round;stroke-linejoin:round;stroke-opacity:1"
         d="m 85.760112,10.839124 -1.058333,0.611029"
         id="path1367"
         sodipodi:nodetypes="cc" />
      <path
         style="opacity:1;fill:none;stroke:#1d1d1a;stroke-width:0.096225;stroke-linecap:round;stroke-linejoin:round;stroke-opacity:1"
         d="m 94.226779,10.839124 1.058333,0.611029"
         id="path1369"
         sodipodi:nodetypes="cc" />
    </g>
    <g
       id="g3006"
       transform="matrix(1.2,0,0,1.2,8.3430344,-81.955757)"
       style="fill:none;stroke:#1d1d1a;stroke-width:0.0833333;stroke-opacity:1">
      <path
         id="path2999"
         style="fill:none;stroke:#1d1d1a;stroke-width:0.0833333;stroke-linejoin:round;stroke-opacity:1"
         inkscape:transform-center-x="-1.3229167"
         inkscape:transform-center-y="-0.29174641"
         d="m 40.079064,42.168885 -4.582718,-2.645833 0.916543,-4.233333 3.666176,-3.704166 3.666174,3.704166 0.916543,4.233332 z"
         sodipodi:nodetypes="ccccccc" />
      <path
         sodipodi:type="star"
         style="fill:none;stroke:#1d1d1a;stroke-width:0.11402;stroke-linecap:butt;stroke-linejoin:round;stroke-opacity:1"
         id="path3001"
         inkscape:flatsided="true"
         sodipodi:sides="3"
         sodipodi:cx="5.6682625"
         sodipodi:cy="6.614583"
         sodipodi:r1="7.2402835"
         sodipodi:r2="3.620142"
         sodipodi:arg1="0.52359878"
         sodipodi:arg2="1.5707963"
         inkscape:rounded="0"
         inkscape:randomized="0"
         d="m 11.938532,10.234725 -12.54053897,0 6.27026947,-10.86042547 z"
         inkscape:transform-center-y="-1.2205896"
         transform="matrix(-0.36543228,-0.63294728,0.63294728,-0.36543228,37.963748,42.882112)"
         inkscape:transform-center-x="0.17723657" />
    </g>
    <g
       id="g11412"
       transform="translate(15.802932,-44.1414)"
       style="stroke-width:0.1">
      <path
         id="path3055"
         style="fill:none;stroke:#1d1d1a;stroke-width:0.1;stroke-linejoin:round;stroke-opacity:1"
         inkscape:transform-center-x="0.6364884"
         inkscape:transform-center-y="-1.1024301"
         d="m 71.320352,1.5875 -4.40972,4.7395889 4.40972,4.0798531 1.066687,-0.987019 -2.389603,-2.2108899 3.276716,-3.521748 z" />
      <path
         id="path3057"
         style="fill:none;stroke:#1d1d1a;stroke-width:0.1;stroke-linejoin:round;stroke-opacity:1"
         inkscape:transform-center-y="-0.84865119"
         d="M 71.320352,1.5875 68.43853,5.998513 71.320352,8.4867326 71.350494,8.4608942 69.997432,7.209033 72.932223,4.0546182 Z"
         inkscape:transform-center-x="1.8742956e-06" />
      <path
         style="fill:none;stroke:#1d1d1a;stroke-width:0.1;stroke-linecap:round;stroke-linejoin:round;stroke-opacity:1"
         d="M 71.320287,8.4869275 V 10.406942"
         id="path3059"
         sodipodi:nodetypes="cc" />
      <path
         style="fill:none;stroke:#1d1d1a;stroke-width:0.1;stroke-linecap:round;stroke-linejoin:round;stroke-opacity:1"
         d="M 68.438615,5.9985985 66.910566,6.3268919"
         id="path3061"
         sodipodi:nodetypes="cc" />
      <g
         id="g3077"
         transform="matrix(0.72168766,0,0,0.94047093,36.273828,1.5727855)"
         style="fill:none;stroke:#1d1d1a;stroke-width:0.121382;stroke-opacity:1">
        <path
           id="path3067"
           style="opacity:1;fill:none;stroke:#1d1d1a;stroke-width:0.143829;stroke-linejoin:round;stroke-opacity:1"
           inkscape:transform-center-x="0.76378644"
           inkscape:transform-center-y="-1.3229165"
           transform="matrix(0.73086456,-0.42196485,0.42196485,0.73086456,45.905163,4.6211482)"
           d="M 12.57301,9.1357778 3.7324392,9.967527 0.03247054,1.895494 9.2884043,0.3443136 Z"
           sodipodi:nodetypes="ccccc" />
        <path
           id="path3069"
           style="opacity:1;fill:none;stroke:#1d1d1a;stroke-width:0.202787;stroke-linejoin:round;stroke-opacity:1"
           inkscape:transform-center-y="-1.0183817"
           transform="matrix(0.6368089,0,0,0.5626198,49.229417,1.3054462)"
           d="M 11.938532,7.7108495 5.6682625,12.413551 -0.60200697,7.7108495 5.6682625,-0.62570047 Z"
           sodipodi:nodetypes="ccccc" />
        <path
           style="opacity:1;fill:none;stroke:#1d1d1a;stroke-width:0.121382;stroke-linecap:round;stroke-linejoin:round;stroke-opacity:1"
           d="M 52.839017,8.2895558 V 10.331102"
           id="path3071"
           sodipodi:nodetypes="cc" />
        <path
           style="opacity:1;fill:none;stroke:#1d1d1a;stroke-width:0.121382;stroke-linecap:round;stroke-linejoin:round;stroke-opacity:1"
           d="M 48.846054,5.6437228 46.728726,5.9927962"
           id="path3073"
           sodipodi:nodetypes="cc" />
        <path
           style="opacity:1;fill:none;stroke:#1d1d1a;stroke-width:0.121382;stroke-linecap:round;stroke-linejoin:round;stroke-opacity:1"
           d="m 56.83198,5.6437228 2.117328,0.3490733"
           id="path3075"
           sodipodi:nodetypes="cc" />
      </g>
    </g>
    <path
       sodipodi:type="star"
       style="opacity:1;fill:#e4e4e0;fill-opacity:1;stroke:#1d1d1a;stroke-width:0.105327;stroke-linecap:butt;stroke-linejoin:round;stroke-opacity:1"
       id="path11578"
       inkscape:flatsided="true"
       sodipodi:sides="3"
       sodipodi:cx="5.6682625"
       sodipodi:cy="6.614583"
       sodipodi:r1="7.2402835"
       sodipodi:r2="3.620142"
       sodipodi:arg1="0.52359878"
       sodipodi:arg2="1.5707963"
       inkscape:rounded="0"
       inkscape:randomized="0"
       d="m 11.938532,10.234725 -12.54053897,0 6.27026947,-10.86042547 z"
       inkscape:transform-center-y="-1.7185192"
       transform="matrix(0.94942092,0,0,0.94942092,20.679891,-22.817754)" />
    <path
       sodipodi:type="star"
       style="opacity:1;fill:#e4e4e0;fill-opacity:1;stroke:#1d1d1a;stroke-width:0.0967494;stroke-linecap:butt;stroke-linejoin:round;stroke-opacity:1"
       id="path11580"
       inkscape:flatsided="true"
       sodipodi:sides="4"
       sodipodi:cx="5.6682625"
       sodipodi:cy="6.614583"
       sodipodi:r1="7.2402835"
       sodipodi:r2="3.620142"
       sodipodi:arg1="0.52359878"
       sodipodi:arg2="1.3089969"
       inkscape:rounded="0"
       inkscape:randomized="0"
       d="M 11.938532,10.234725 2.0481207,12.884852 -0.60200693,2.9944412 9.2884043,0.3443136 Z"
       inkscape:transform-center-y="-1.8071379"
       transform="matrix(0.99837956,0.267515,-0.267515,0.99837956,37.523972,-26.37646)"
       inkscape:transform-center-x="-0.48422033" />
    <g
       id="g15930"
       style="fill:#e4e4e0;fill-opacity:1"
       transform="translate(-0.26458333,-46.699446)">
      <path
         id="path11582"
         style="fill:#e4e4e0;fill-opacity:1;stroke:#1d1d1a;stroke-width:0.1;stroke-linejoin:round;stroke-opacity:1"
         inkscape:transform-center-x="0.76378644"
         inkscape:transform-center-y="-1.3229165"
         d="m 78.416908,28.888251 -5.953125,5.50807 -5.953124,-5.50807 5.953124,-6.398179 z"
         sodipodi:nodetypes="ccccc" />
      <path
         id="path11584"
         style="fill:#e4e4e0;fill-opacity:1;stroke:#1d1d1a;stroke-width:0.1;stroke-linejoin:round;stroke-opacity:1"
         inkscape:transform-center-y="-1.0183817"
         d="m 76.354043,28.445055 -3.890258,3.359244 -3.890259,-3.359244 3.890259,-5.954984 z"
         sodipodi:nodetypes="ccccc" />
      <path
         style="fill:#e4e4e0;fill-opacity:1;stroke:#1d1d1a;stroke-width:0.1;stroke-linecap:round;stroke-linejoin:round;stroke-opacity:1"
         d="m 72.463784,31.8043 v 2.59202"
         id="path11586"
         sodipodi:nodetypes="cc" />
      <path
         style="fill:#e4e4e0;fill-opacity:1;stroke:#1d1d1a;stroke-width:0.1;stroke-linecap:round;stroke-linejoin:round;stroke-opacity:1"
         d="m 68.573526,28.445055 -2.062867,0.443196"
         id="path11588"
         sodipodi:nodetypes="cc" />
      <path
         style="fill:#e4e4e0;fill-opacity:1;stroke:#1d1d1a;stroke-width:0.1;stroke-linecap:round;stroke-linejoin:round;stroke-opacity:1"
         d="m 76.354042,28.445055 2.062867,0.443196"
         id="path11590"
         sodipodi:nodetypes="cc" />
    </g>
    <g
       id="g15912"
       style="fill:#e4e4e0;fill-opacity:1"
       transform="translate(-0.26458333,-46.698783)">
      <path
         sodipodi:type="star"
         style="fill:#e4e4e0;fill-opacity:1;stroke:#1d1d1a;stroke-width:0.115669;stroke-linecap:butt;stroke-linejoin:round;stroke-opacity:1"
         id="path11594"
         inkscape:flatsided="true"
         sodipodi:sides="10"
         sodipodi:cx="5.6682625"
         sodipodi:cy="6.614583"
         sodipodi:r1="7.2402835"
         sodipodi:r2="3.620142"
         sodipodi:arg1="0.52359878"
         sodipodi:arg2="0.83775805"
         inkscape:rounded="0"
         inkscape:randomized="0"
         d="M 11.938532,10.234725 8.6131511,13.228911 4.1629229,13.696649 0.28768325,11.459278 -1.532358,7.3713987 -0.60200693,2.9944412 2.7233739,2.5490885e-4 7.1736021,-0.4674829 11.048842,1.7698878 12.868883,5.8577673 Z"
         inkscape:transform-center-y="-0.2374207"
         transform="matrix(-0.43226801,-0.74871015,0.74871015,-0.43226801,102.97818,35.545692)"
         inkscape:transform-center-x="1.3229164" />
      <path
         sodipodi:type="star"
         style="fill:#e4e4e0;fill-opacity:1;stroke:#1d1d1a;stroke-width:0.141275;stroke-linecap:butt;stroke-linejoin:round;stroke-opacity:1"
         id="path11596"
         inkscape:flatsided="true"
         sodipodi:sides="5"
         sodipodi:cx="5.6682625"
         sodipodi:cy="6.614583"
         sodipodi:r1="7.2402835"
         sodipodi:r2="3.620142"
         sodipodi:arg1="0.52359878"
         sodipodi:arg2="1.1519173"
         inkscape:rounded="0"
         inkscape:randomized="0"
         d="M 11.938532,10.234725 4.1629229,13.696649 -1.532358,7.3713987 2.7233739,2.5490885e-4 11.048842,1.7698878 Z"
         inkscape:transform-center-y="-0.19438832"
         transform="matrix(-0.35392039,-0.61300812,0.61300812,-0.35392039,103.43169,34.175263)"
         inkscape:transform-center-x="1.0831402" />
      <path
         style="fill:#e4e4e0;fill-opacity:1;stroke:#1d1d1a;stroke-width:0.1;stroke-linecap:round;stroke-linejoin:round;stroke-opacity:1"
         d="m 105.48037,22.183048 v 1.05152"
         id="path11598"
         sodipodi:nodetypes="cc" />
      <path
         style="fill:#e4e4e0;fill-opacity:1;stroke:#1d1d1a;stroke-width:0.1;stroke-linecap:round;stroke-linejoin:round;stroke-opacity:1"
         d="m 99.527247,26.508246 1.078993,0.234121"
         id="path11600"
         sodipodi:nodetypes="cc" />
      <path
         style="fill:#e4e4e0;fill-opacity:1;stroke:#1d1d1a;stroke-width:0.1;stroke-linecap:round;stroke-linejoin:round;stroke-opacity:1"
         d="m 110.35451,26.775834 1.07899,-0.267588"
         id="path11602"
         sodipodi:nodetypes="cc" />
      <path
         style="fill:#e4e4e0;fill-opacity:1;stroke:#1d1d1a;stroke-width:0.1;stroke-linecap:round;stroke-linejoin:round;stroke-opacity:1"
         d="m 108.49275,32.505723 0.66686,1.000841"
         id="path11604"
         sodipodi:nodetypes="cc" />
      <path
         style="fill:#e4e4e0;fill-opacity:1;stroke:#1d1d1a;stroke-width:0.1;stroke-linecap:round;stroke-linejoin:round;stroke-opacity:1"
         d="m 102.46799,32.505723 -0.66685,1.000841"
         id="path11606"
         sodipodi:nodetypes="cc" />
    </g>
    <g
       id="g15903"
       style="fill:#e4e4e0;fill-opacity:1"
       transform="translate(-0.26458333,-46.698958)">
      <path
         sodipodi:type="star"
         style="fill:#e4e4e0;fill-opacity:1;stroke:#1d1d1a;stroke-width:0.11402;stroke-linecap:butt;stroke-linejoin:round;stroke-opacity:1"
         id="path11610"
         inkscape:flatsided="true"
         sodipodi:sides="6"
         sodipodi:cx="5.6682625"
         sodipodi:cy="6.614583"
         sodipodi:r1="7.2402835"
         sodipodi:r2="3.620142"
         sodipodi:arg1="0.52359878"
         sodipodi:arg2="1.0471976"
         inkscape:rounded="0"
         inkscape:randomized="0"
         d="m 11.938532,10.234725 -6.2702696,3.620142 -6.27026937,-3.620142 4e-8,-7.2402838 6.27026943,-3.62014167 6.2702695,3.62014177 z"
         inkscape:transform-center-y="-0.23742019"
         transform="matrix(-0.43851874,-0.75953674,0.75953674,-0.43851874,119.16995,35.648581)"
         inkscape:transform-center-x="1.3229167" />
      <path
         sodipodi:type="star"
         style="fill:#e4e4e0;fill-opacity:1;stroke:#1d1d1a;stroke-width:0.11402;stroke-linecap:butt;stroke-linejoin:round;stroke-opacity:1"
         id="path11612"
         inkscape:flatsided="false"
         sodipodi:sides="3"
         sodipodi:cx="5.6682625"
         sodipodi:cy="6.614583"
         sodipodi:r1="5.7922268"
         sodipodi:r2="7.2402835"
         sodipodi:arg1="0.52359878"
         sodipodi:arg2="1.5707963"
         inkscape:rounded="0"
         inkscape:randomized="0"
         d="M 10.684478,9.5106964 5.6682627,13.854867 0.65204692,9.5106964 -0.60200705,2.9944414 5.6682625,0.82235622 11.938532,2.9944411 Z"
         inkscape:transform-center-y="0.95408622"
         transform="matrix(-0.43851874,-0.75953674,0.75953674,-0.43851874,119.16995,35.648581)"
         inkscape:transform-center-x="2.0108334" />
      <path
         sodipodi:type="star"
         style="fill:#e4e4e0;fill-opacity:1;stroke:#1d1d1a;stroke-width:0.144046;stroke-linecap:butt;stroke-linejoin:round;stroke-opacity:1"
         id="path11614"
         inkscape:flatsided="true"
         sodipodi:sides="3"
         sodipodi:cx="5.6682625"
         sodipodi:cy="6.614583"
         sodipodi:r1="7.2402835"
         sodipodi:r2="3.620142"
         sodipodi:arg1="0.52359878"
         sodipodi:arg2="1.5707963"
         inkscape:rounded="0"
         inkscape:randomized="0"
         d="m 11.938532,10.234725 -12.54053897,0 6.27026947,-10.86042547 z"
         inkscape:transform-center-y="-2.0016614"
         transform="matrix(-0.34711073,-0.60121343,0.60121343,-0.34711073,119.69907,34.092898)" />
      <path
         style="fill:#e4e4e0;fill-opacity:1;stroke:#1d1d1a;stroke-width:0.1;stroke-linecap:round;stroke-linejoin:round;stroke-opacity:1"
         d="m 121.70833,22.092709 v 1.27"
         id="path11616"
         sodipodi:nodetypes="cc" />
      <path
         style="fill:#e4e4e0;fill-opacity:1;stroke:#1d1d1a;stroke-width:0.1;stroke-linecap:round;stroke-linejoin:round;stroke-opacity:1"
         d="m 117.30892,30.982708 -1.09985,0.635"
         id="path11618"
         sodipodi:nodetypes="cc" />
      <path
         style="fill:#e4e4e0;fill-opacity:1;stroke:#1d1d1a;stroke-width:0.1;stroke-linecap:round;stroke-linejoin:round;stroke-opacity:1"
         d="m 126.10774,30.982708 1.09985,0.635"
         id="path11620"
         sodipodi:nodetypes="cc" />
    </g>
    <g
       id="g15934"
       style="fill:#e4e4e0;fill-opacity:1"
       transform="translate(-0.26458333,-46.698988)">
      <path
         id="path11624"
         style="fill:#e4e4e0;fill-opacity:1;stroke:#1d1d1a;stroke-width:0.1;stroke-linejoin:round;stroke-opacity:1"
         inkscape:transform-center-x="-1.3229167"
         inkscape:transform-center-y="-0.29174641"
         d="m 56.702494,34.792738 -5.499261,-3.175 1.099851,-5.079999 4.399412,-4.444999 4.399408,4.444999 1.099852,5.079998 z"
         sodipodi:nodetypes="ccccccc" />
      <path
         sodipodi:type="star"
         style="fill:#e4e4e0;fill-opacity:1;stroke:#1d1d1a;stroke-width:0.11402;stroke-linecap:butt;stroke-linejoin:round;stroke-opacity:1"
         id="path11626"
         inkscape:flatsided="true"
         sodipodi:sides="3"
         sodipodi:cx="5.6682625"
         sodipodi:cy="6.614583"
         sodipodi:r1="7.2402835"
         sodipodi:r2="3.620142"
         sodipodi:arg1="0.52359878"
         sodipodi:arg2="1.5707963"
         inkscape:rounded="0"
         inkscape:randomized="0"
         d="m 11.938532,10.234725 -12.54053897,0 6.27026947,-10.86042547 z"
         inkscape:transform-center-y="-1.2205896"
         transform="matrix(-0.43851874,-0.75953674,0.75953674,-0.43851874,54.164115,35.64861)"
         inkscape:transform-center-x="0.17723657" />
    </g>
    <g
       id="g15923"
       style="fill:#e4e4e0;fill-opacity:1"
       transform="translate(-0.26458333,-46.698876)">
      <path
         id="path11630"
         style="fill:#e4e4e0;fill-opacity:1;stroke:#1d1d1a;stroke-width:0.1;stroke-linejoin:round;stroke-opacity:1"
         inkscape:transform-center-x="0.6364884"
         inkscape:transform-center-y="-1.1024301"
         d="m 87.387867,23.591933 -4.40972,4.739589 4.40972,4.079853 1.066687,-0.987019 -2.389603,-2.21089 3.276716,-3.521748 z" />
      <path
         id="path11632"
         style="fill:#e4e4e0;fill-opacity:1;stroke:#1d1d1a;stroke-width:0.1;stroke-linejoin:round;stroke-opacity:1"
         inkscape:transform-center-y="-0.84865119"
         d="m 87.387867,23.591933 -2.881822,4.411013 2.881822,2.48822 0.03014,-0.02584 -1.353062,-1.251861 2.934791,-3.154415 z"
         inkscape:transform-center-x="1.8742956e-06" />
      <path
         style="fill:#e4e4e0;fill-opacity:1;stroke:#1d1d1a;stroke-width:0.1;stroke-linecap:round;stroke-linejoin:round;stroke-opacity:1"
         d="m 87.387802,30.49136 v 1.920015"
         id="path11634"
         sodipodi:nodetypes="cc" />
      <path
         style="fill:#e4e4e0;fill-opacity:1;stroke:#1d1d1a;stroke-width:0.1;stroke-linecap:round;stroke-linejoin:round;stroke-opacity:1"
         d="m 84.50613,28.003031 -1.528049,0.328294"
         id="path11636"
         sodipodi:nodetypes="cc" />
      <path
         id="path11638"
         style="fill:#e4e4e0;fill-opacity:1;stroke:#1d1d1a;stroke-width:0.1;stroke-linejoin:round;stroke-opacity:1"
         inkscape:transform-center-x="0.76378644"
         inkscape:transform-center-y="-1.3229165"
         d="M 94.884331,29.213269 90.47461,33.29332 86.064889,29.213269 90.47461,24.473877 Z"
         sodipodi:nodetypes="ccccc" />
      <path
         id="path11640"
         style="fill:#e4e4e0;fill-opacity:1;stroke:#1d1d1a;stroke-width:0.0999999;stroke-linejoin:round;stroke-opacity:1"
         inkscape:transform-center-y="-1.0183817"
         d="M 93.356282,28.884975 90.47461,31.373304 87.592937,28.884975 90.47461,24.473877 Z"
         sodipodi:nodetypes="ccccc" />
      <path
         style="fill:#e4e4e0;fill-opacity:1;stroke:#1d1d1a;stroke-width:0.1;stroke-linecap:round;stroke-linejoin:round;stroke-opacity:1"
         d="m 90.47461,31.373304 v 1.920015"
         id="path11642"
         sodipodi:nodetypes="cc" />
      <path
         style="fill:#e4e4e0;fill-opacity:1;stroke:#1d1d1a;stroke-width:0.1;stroke-linecap:round;stroke-linejoin:round;stroke-opacity:1"
         d="m 87.592937,28.884975 -1.528049,0.328294"
         id="path11644"
         sodipodi:nodetypes="cc" />
      <path
         style="fill:#e4e4e0;fill-opacity:1;stroke:#1d1d1a;stroke-width:0.1;stroke-linecap:round;stroke-linejoin:round;stroke-opacity:1"
         d="m 93.356282,28.884975 1.528049,0.328294"
         id="path11646"
         sodipodi:nodetypes="cc" />
    </g>
    <g
       id="g20905"
       transform="rotate(-1,-1344.2367,33.710359)">
      <path
         style="color:#000000;fill:#e4e4e0;stroke-width:0.0999997;stroke-linejoin:round;-inkscape-stroke:none"
         d="M 32.279166,35.662018 H 20.372916 L 26.326041,25.350903 Z"
         id="path20664" />
      <path
         style="color:#000000;fill:#1d1d1a;stroke-width:0.949421;stroke-linejoin:round;-inkscape-stroke:none"
         d="m 26.325762,25.301501 c -1.428688,3.091103 -3.802099,5.658724 -5.054333,8.839664 -0.106415,0.435141 -0.482013,1.339883 -0.02087,1.526951 3.675742,0.104661 7.353057,0.01379 11.029478,0.04365 -1.873142,-3.532776 -3.939592,-6.9577 -5.954278,-10.410262 z m 0,0.150201 c 1.95509,3.386639 3.91018,6.773278 5.86527,10.159917 -3.91018,0 -7.82036,0 -11.73054,0 1.95509,-3.386639 3.91018,-6.773278 5.86527,-10.159917 z"
         id="path20666" />
    </g>
    <g
       id="g20909"
       transform="rotate(2,725.39904,21.707309)">
      <path
         style="color:#000000;fill:#e4e4e0;stroke-width:0.1;stroke-linejoin:round;-inkscape-stroke:none"
         d="m 46.969799,35.798127 -10.583333,-10e-7 V 25.214793 h 10.583333 z"
         id="path20656" />
      <path
         style="color:#000000;fill:#1d1d1a;stroke-width:1.0336;stroke-linejoin:round;-inkscape-stroke:none"
         d="m 46.969497,25.16395 c -3.527872,6.8e-5 -7.055745,1.37e-4 -10.583617,2.05e-4 0.287101,3.133542 -0.56307,6.303629 0.09356,9.411989 0.14741,0.735921 0.474717,1.528961 1.364317,1.215972 2.986659,-0.0445 6.021272,0.415609 8.968982,-0.225461 0.392951,-0.812791 0.09606,-1.944577 0.207783,-2.882528 0.02226,-2.506792 0.0031,-5.013893 -0.05103,-7.520177 z m -0.04966,0.09955 c -2.2e-5,3.494409 -4.3e-5,6.988817 -6.5e-5,10.483226 -3.193907,-0.33554 -6.435354,0.503136 -9.601995,-0.17952 -0.427757,-0.12325 -1.056017,-0.198327 -0.8817,-0.774809 1.77e-4,-3.176316 3.55e-4,-6.352632 5.33e-4,-9.528948 3.494409,1.7e-5 6.988818,3.4e-5 10.483227,5.1e-5 z"
         id="path20658" />
    </g>
    <g
       id="g20917"
       transform="matrix(0.99746971,-0.0174109,0.0174109,0.99746971,-0.11784592,-22.543059)"
       style="stroke-width:1.00238">
      <path
         style="color:#000000;fill:#e4e4e0;stroke-width:0.100238;stroke-linejoin:round;-inkscape-stroke:none"
         d="m 78.416908,30.951515 -5.953125,5.50807 -5.953124,-5.50807 5.953124,-6.398179 z"
         id="path20680" />
      <path
         id="path20682"
         style="color:#000000;fill:#1d1d1a;stroke-width:1.00238;stroke-linejoin:round;-inkscape-stroke:none"
         d="m 72.46276,24.503931 c -2.012644,2.118012 -3.986316,4.272529 -5.981593,6.40681 1.730581,1.851839 3.766197,3.386964 5.499653,5.235906 2.055618,-0.03025 2.813629,-2.33225 4.384937,-3.281644 1.443619,-0.604728 2.389402,-2.454893 0.761711,-3.469656 -1.656007,-1.531174 -3.078641,-3.289567 -4.664708,-4.891416 z m 0.0021,0.14056 c 1.274685,1.951819 2.549371,3.903637 3.824056,5.855456 -1.275374,1.100364 -2.550749,2.200727 -3.826123,3.301091 -1.274685,-1.100364 -2.549371,-2.200727 -3.824056,-3.301091 1.275374,-1.951819 2.550749,-3.903637 3.826123,-5.855456 z m 0.361219,0.37052 c 1.815048,1.951302 3.630097,3.902604 5.445145,5.853906 -1.996078,0.09413 -3.002467,-1.919286 -3.841613,-3.400836 -0.520418,-0.826861 -1.079566,-1.628503 -1.603532,-2.45307 z m -0.727604,0.0057 c -1.185458,1.81436 -2.370915,3.628719 -3.556373,5.443079 -0.628558,0.135048 -1.257115,0.270095 -1.885673,0.405143 1.814015,-1.949407 3.628031,-3.898815 5.442046,-5.848222 z m -3.539836,5.541781 c 1.285193,1.109665 2.570386,2.21933 3.855579,3.328995 0,0.818038 0,1.636076 0,2.454114 -1.932871,-1.788521 -3.865742,-3.577043 -5.798613,-5.365564 0.647678,-0.139182 1.295356,-0.278363 1.943034,-0.417545 z m 7.810376,0 c 0.647678,0.139182 1.295356,0.278363 1.943034,0.417545 -1.932699,1.78766 -3.865397,3.57532 -5.798096,5.36298 0,-0.817177 0,-1.634353 0,-2.45153 1.285021,-1.109665 2.570041,-2.21933 3.855062,-3.328995 z" />
    </g>
    <g
       id="g20925"
       transform="matrix(0.97899943,-0.03418741,0.03418741,0.97899943,1.0437546,-19.748656)"
       style="stroke-width:1.02083">
      <path
         style="color:#000000;fill:#e4e4e0;stroke-width:0.102083;stroke-linejoin:round;-inkscape-stroke:none"
         d="m 105.48038,24.246975 3.67923,1.195455 2.27389,3.129743 v 3.868575 l -2.27389,3.129743 -3.67923,1.195456 -3.67924,-1.195456 -2.273888,-3.129743 v -3.868575 l 2.273888,-3.129743 z"
         id="path20798" />
      <path
         id="path20800"
         style="color:#000000;fill:#1d1d1a;stroke-width:0.882543;stroke-linejoin:round;-inkscape-stroke:none"
         d="m 105.48038,24.197489 c -1.28461,0.625302 -2.90428,0.52643 -3.9661,1.588544 -0.44717,0.59884 -0.89983,1.19708 -1.35729,1.789957 -0.523059,0.692141 -0.90993,1.583006 -0.679723,2.458696 -0.226647,1.450975 0.110976,3.05052 1.187283,4.100904 0.29984,0.425602 0.51881,0.949222 0.98834,1.243634 0.96068,0.698541 2.17131,0.84916 3.25811,1.262118 1.32272,0.300677 2.48956,-0.554546 3.71561,-0.882404 0.55779,-0.06028 0.79726,-0.663807 1.18344,-1.009979 0.70812,-0.824219 1.41059,-1.716163 1.6739,-2.792652 -0.15977,-1.306925 0.35912,-2.721739 -0.34286,-3.93227 -0.2853,-0.370171 -0.57674,-0.73004 -0.81918,-1.133374 -0.68097,-1.038554 -1.69419,-2.007724 -2.99416,-2.095968 -0.61541,-0.200229 -1.23099,-0.399973 -1.84737,-0.597206 z m -0.0506,0.117823 c 0.22272,0.759854 -0.40443,1.391265 -1.01142,1.72944 -0.64771,0.351478 -1.19729,0.834634 -1.8084,1.235555 -0.73878,0.541941 -1.40701,1.388578 -2.39917,1.401277 -0.867618,-0.191796 -0.0273,-1.045233 0.30872,-1.370151 0.52748,-0.469457 0.61049,-1.262051 1.23743,-1.645407 0.92575,-0.64752 2.08866,-0.757004 3.11836,-1.170429 0.18483,-0.0601 0.36965,-0.120196 0.55448,-0.180285 z m 0.10129,5.16e-4 c 1.19941,0.389813 2.39882,0.779625 3.59823,1.169438 0.58535,1.036822 1.59762,1.812808 2.0003,2.95194 -0.16309,0.637796 -1.23161,0.139957 -1.57716,-0.236368 -1.33521,-0.98259 -2.68161,-1.950357 -4.02137,-2.926929 0,-0.31936 0,-0.638721 0,-0.958081 z m -0.0507,1.044381 c 1.60507,1.166165 3.21014,2.33233 4.81521,3.498495 -0.61323,1.88705 -1.22645,3.774103 -1.83968,5.661153 -1.98403,-1.72e-4 -3.96806,-3.45e-4 -5.95209,-5.17e-4 -0.61305,-1.88688 -1.22611,-3.773756 -1.83916,-5.660636 1.60524,-1.166165 3.21048,-2.33233 4.81572,-3.498495 z m -5.903512,3.273702 c 0.668282,-0.128852 1.148372,0.485188 1.278482,1.075561 0.48667,1.626837 1.04276,3.232784 1.55752,4.851175 -0.0636,0.669022 -1.00924,1.011257 -1.16698,0.197062 -0.46068,-0.983328 -1.588396,-1.64267 -1.668569,-2.802581 -1.51e-4,-1.107072 -3.02e-4,-2.214145 -4.53e-4,-3.321217 z m 11.806002,0.0026 c 1.7e-4,1.262972 3.4e-4,2.525944 5.1e-4,3.788916 -0.78806,0.859809 -1.2108,2.022171 -2.12389,2.769351 -0.63715,0.231957 -0.71843,-1.005953 -0.48454,-1.452094 0.22672,-0.613708 0.49767,-1.211997 0.64057,-1.852185 0.32591,-1.002841 0.65183,-2.005683 0.97774,-3.008525 0.32987,-0.08182 0.65974,-0.163642 0.98961,-0.245463 z m -8.88732,5.983097 c 1.99006,0 3.98012,0 5.97018,0 0.67961,0.344603 0.44253,1.214885 -0.2974,1.252218 -0.93786,0.202023 -1.8105,0.635858 -2.75419,0.819663 -1.17853,-0.382979 -2.35705,-0.765961 -3.53558,-1.14894 0.20566,-0.307652 0.41136,-0.615275 0.61699,-0.922941 z" />
    </g>
    <g
       id="g20929"
       transform="matrix(0.99608244,0.05220247,-0.05220247,0.99608244,1.7890007,-30.117204)"
       style="stroke-width:1.00256">
      <path
         style="color:#000000;fill:#e4e4e0;stroke-width:0.100256;stroke-linejoin:round;-inkscape-stroke:none"
         d="m 121.70833,24.156461 5.49926,3.175 v 6.35 l -5.49926,3.175 -5.49926,-3.175 v -6.35 z"
         id="path20855" />
      <path
         id="path20857"
         style="color:#000000;fill:#1d1d1a;stroke-width:0.879279;stroke-linejoin:round;-inkscape-stroke:none"
         d="m 121.70782,24.106539 c -1.7439,1.245422 -4.35686,1.994191 -5.53215,3.582347 0.18225,2.01097 -0.45774,4.535426 0.33469,6.219511 2.18645,0.688751 4.36738,3.96129 6.57538,2.210691 1.89593,-1.301693 5.09596,-1.871963 4.17408,-4.807576 -0.15496,-1.90912 0.77489,-4.444982 -1.72968,-5.008198 -1.27046,-0.738588 -2.54805,-1.464808 -3.82232,-2.196775 z m 0.0501,0.135392 c 1.65692,0.956875 3.31384,1.913751 4.97076,2.870626 -1.65692,-0.574297 -3.31384,-1.148595 -4.97076,-1.722892 0,-0.382578 0,-0.765156 0,-1.147734 z m -0.0997,0.0015 c 0.24666,1.991003 -2.53658,1.707811 -3.73433,2.452535 -1.99419,0.654008 1.09977,-0.8671 1.70338,-1.279893 0.67699,-0.390881 1.35397,-0.781762 2.03095,-1.172642 z m -0.0589,1.273308 c -1.42214,2.462552 -2.84427,4.92511 -4.26641,7.387662 -0.12624,-1.802679 -1.2357,-4.172799 -0.779,-5.63905 1.6818,-0.582871 3.36361,-1.165741 5.04541,-1.748612 z m 0.21962,0.0021 c 1.62843,0.803752 4.30049,1.004896 5.2648,2.192114 -0.39038,1.534716 -0.60512,4.113164 -1.1016,5.017437 -1.38773,-2.403184 -2.77547,-4.806367 -4.1632,-7.209551 z m -0.1111,0.0072 c 1.42213,2.463245 2.84427,4.926485 4.2664,7.38973 -2.84427,1.72e-4 -5.68854,3.45e-4 -8.53281,5.17e-4 1.42214,-2.463414 2.84427,-4.926833 4.26641,-7.390247 z m -5.44825,2.327507 c 0.3309,1.72272 0.6618,3.44544 0.9927,5.16816 -2.17143,0.175033 -0.44992,-3.411305 -0.99277,-4.791353 z m 10.89804,0.0031 c -1.7e-4,1.912889 -3.4e-4,3.825778 -5.1e-4,5.738667 -1.77713,-0.726834 -0.30912,-2.896433 -0.28716,-4.239761 0.0951,-0.499793 0.18971,-0.999669 0.28767,-1.498906 z m -1.09605,5.158858 c -1.5377,1.035362 -3.08498,3.291486 -4.62573,3.539477 -1.11072,-1.119773 -3.49729,-2.711963 -3.80864,-3.538499 2.81145,-4.04e-4 5.62295,-4.48e-4 8.43437,-9.78e-4 z m -8.75916,0.0925 c 1.32619,1.147906 2.65238,2.295811 3.97857,3.443717 -1.41034,-1.004484 -4.14203,-2.009101 -4.72426,-3.01351 0.24857,-0.143402 0.49713,-0.286809 0.74569,-0.430207 z m 8.81083,0 c 1.57532,1.278533 -1.97102,1.887891 -2.67454,2.691818 -1.18168,0.79841 -1.21639,0.579592 -0.26254,-0.148076 0.97903,-0.847914 1.95805,-1.695828 2.93708,-2.543742 z" />
    </g>
    <g
       id="g20913"
       transform="matrix(0.996166,0.01738814,-0.01738814,0.996166,-49.284856,-24.760238)"
       style="stroke-width:1.0037">
      <path
         style="color:#000000;fill:#e4e4e0;stroke-width:0.10037;stroke-linejoin:round;-inkscape-stroke:none"
         d="m 56.702494,36.85646 -5.499261,-3.175 1.099851,-5.079999 4.399412,-4.444999 4.399408,4.444999 1.099852,5.079998 z"
         id="path20543" />
      <path
         id="path20545"
         style="color:#000000;fill:#1d1d1a;stroke-width:1.0037;stroke-linejoin:round;-inkscape-stroke:none"
         d="m 56.702999,24.107572 c -1.457892,1.859171 -4.073078,3.149843 -4.612883,5.488484 -0.556533,1.842345 -1.685998,4.633781 1.024173,5.248619 1.845406,0.969859 3.700331,2.959973 5.559265,0.935352 1.594817,-1.002225 4.449767,-1.746029 3.135458,-4.154848 -0.317736,-1.754276 -0.63682,-3.610447 -2.261212,-4.687557 -0.967979,-0.922783 -1.877941,-1.905386 -2.844801,-2.83005 z m -5.17e-4,0.148829 c 1.804369,3.125218 3.608737,6.250437 5.413106,9.375655 -3.609082,1.72e-4 -7.218164,3.44e-4 -10.827246,5.16e-4 1.804713,-3.12539 3.609427,-6.250781 5.41414,-9.376171 z m 0.236161,0.210323 c 1.372698,1.386823 2.745397,2.773646 4.118095,4.160469 0.342615,1.584227 0.68523,3.168455 1.027845,4.752682 -1.715313,-2.97105 -3.430627,-5.942101 -5.14594,-8.913151 z m -0.474906,0.0036 c -1.714796,2.970361 -3.429593,5.940723 -5.144389,8.911084 0.343476,-1.584744 0.686952,-3.169488 1.030428,-4.754232 1.37132,-1.385617 2.742641,-2.771235 4.113961,-4.156852 z m -5.074109,9.260933 c 3.541386,1.72e-4 7.082772,3.45e-4 10.624158,5.17e-4 -1.770262,1.022332 -3.540525,2.044664 -5.310787,3.066996 -1.771124,-1.022504 -3.542247,-2.045009 -5.313371,-3.067513 z" />
    </g>
    <g
       id="g20921"
       transform="matrix(0.9892638,-0.03454585,0.03454585,0.9892638,-0.05356787,-20.517438)"
       style="stroke-width:1.01024">
      <path
         id="path20721"
         style="color:#000000;fill:#e4e4e0;stroke-width:0.101024;stroke-linejoin:round;-inkscape-stroke:none"
         d="m 87.387948,25.655798 -4.40955,4.739763 4.40955,4.079854 1.066601,-0.98702 2.020032,1.86862 4.40955,-4.079854 -4.40955,-4.739246 -1.132748,1.217497 z" />
      <path
         id="path20723"
         style="color:#000000;fill:#1d1d1a;stroke-width:1.01024;stroke-linejoin:round;-inkscape-stroke:none"
         d="m 87.388464,25.605672 c -1.506759,1.57441 -2.981892,3.178622 -4.45919,4.780582 1.442624,1.409748 2.954915,2.745372 4.425083,4.125861 0.449246,-0.265604 0.90506,-1.123238 1.486626,-0.67555 0.482999,0.439372 0.809558,1.078626 1.441146,1.33534 0.736541,0.302756 0.982227,-0.646408 1.492073,-0.955612 1.061269,-0.965289 2.110913,-1.944163 3.158905,-2.924214 -1.440421,-1.634604 -2.958837,-3.197782 -4.436145,-4.798586 -0.456363,0.274929 -0.769965,1.204978 -1.385209,0.951039 -0.549394,-0.387289 -0.811603,-1.053525 -1.348169,-1.45655 -0.123679,-0.128762 -0.248557,-0.256379 -0.37512,-0.38231 z m -0.0015,0.142627 c 0.516248,0.789616 1.032495,1.579232 1.548743,2.368848 -0.970746,1.051881 -1.959543,2.087101 -2.918669,3.149692 -0.477532,-0.411476 -1.051496,-0.737662 -1.400778,-1.277487 0.923568,-1.413685 1.84714,-2.827366 2.770704,-4.241053 z m 0.359151,0.364836 c 0.508841,0.547253 1.017681,1.094507 1.526522,1.64176 -0.695128,0.401426 -0.775618,-0.838918 -1.211832,-1.156285 -0.106352,-0.160885 -0.204987,-0.326793 -0.31469,-0.485475 z m -0.720369,0.0057 c -0.850077,1.301213 -1.700155,2.602425 -2.550232,3.903638 -0.285282,0.05114 -1.182507,0.444427 -1.039315,-0.06855 1.216789,-1.25878 2.392295,-2.557604 3.589547,-3.835084 z m 3.448885,0.50798 c 0.938788,1.437466 1.877577,2.874932 2.816365,4.312398 -0.938788,0.810631 -1.877577,1.621262 -2.816365,2.431893 -0.938789,-0.810631 -1.877577,-1.621262 -2.816366,-2.431893 0.938789,-1.437466 1.877577,-2.874932 2.816366,-4.312398 z m -0.359668,0.371036 c -0.851111,1.302418 -1.702222,2.604837 -2.553333,3.907255 -0.317687,0.0076 -1.081322,0.43373 -1.113478,0.01832 1.236426,-1.295245 2.442979,-2.618519 3.666811,-3.925575 z m 0.720886,0.0016 c 1.301213,1.398709 2.602425,2.797417 3.903638,4.196126 -0.635438,-0.121521 -1.465229,-0.175185 -1.749121,-0.869571 -0.694835,-1.122757 -1.437965,-2.216928 -2.154517,-3.326555 z m -6.344832,3.121773 c 0.948951,0.819244 1.897903,1.638487 2.846854,2.457731 0,0.593418 0,1.186835 0,1.780253 -1.419224,-1.311742 -2.838447,-2.623483 -4.257671,-3.935225 0.470272,-0.10092 0.940545,-0.201839 1.410817,-0.302759 z m 3.089217,0.882117 c 0.947918,0.818727 1.895836,1.637453 2.843754,2.45618 0,0.594279 0,1.188558 0,1.782837 -1.417485,-1.312237 -2.834969,-2.624473 -4.252454,-3.93671 0.469567,-0.100769 0.939133,-0.201538 1.4087,-0.302307 z m 5.788794,0 c 0.469566,0.100769 0.939133,0.201538 1.408699,0.302307 -1.417484,1.312237 -2.834969,2.624473 -4.252453,3.93671 0,-0.594279 0,-1.188558 0,-1.782837 0.947918,-0.818727 1.895836,-1.637453 2.843754,-2.45618 z m -5.931421,1.613338 c 0.313848,0.290594 0.627697,0.581187 0.941545,0.871781 -0.313848,0.290766 -0.627697,0.581532 -0.941545,0.872298 0,-0.58136 0,-1.162719 0,-1.744079 z" />
    </g>
  </g>
</svg>
