<?xml version="1.0" encoding="UTF-8" standalone="no"?>
<!-- Created with Inkscape (http://www.inkscape.org/) -->

<svg
   width="50"
   height="50"
   viewBox="0 0 13.229166 13.229167"
   version="1.1"
   id="svg5"
   inkscape:version="1.2 (dc2aedaf03, 2022-05-15)"
   sodipodi:docname="dice simplified.svg"
   xmlns:inkscape="http://www.inkscape.org/namespaces/inkscape"
   xmlns:sodipodi="http://sodipodi.sourceforge.net/DTD/sodipodi-0.dtd"
   xmlns="http://www.w3.org/2000/svg"
   xmlns:svg="http://www.w3.org/2000/svg">
  <sodipodi:namedview
     id="namedview7"
     pagecolor="#ffffff"
     bordercolor="#000000"
     borderopacity="0.25"
     inkscape:showpageshadow="2"
     inkscape:pageopacity="0.0"
     inkscape:pagecheckerboard="0"
     inkscape:deskcolor="#d1d1d1"
     inkscape:document-units="mm"
     showgrid="false"
     inkscape:zoom="2"
     inkscape:cx="207.25"
     inkscape:cy="14.5"
     inkscape:window-width="1920"
     inkscape:window-height="1009"
     inkscape:window-x="1912"
     inkscape:window-y="-8"
     inkscape:window-maximized="1"
     inkscape:current-layer="layer1" />
  <defs
     id="defs2" />
  <g
     inkscape:label="Layer 1"
     inkscape:groupmode="layer"
     id="layer1">
    <path
       id="path2270"
       style="color:#000000;fill:#000000;stroke-width:1.58751;stroke-linejoin:round;-inkscape-stroke:none"
       d="M 6.6137408,0.77102867 A 0.86276531,0.86276531 0 0 0 5.8662017,1.202366 l -5.75004207,9.960637 a 0.86276531,0.86276531 0 0 0 0.74697751,1.295135 H 12.36603 a 0.86276531,0.86276531 0 0 0 0.746977,-1.295135 L 7.3607184,1.202366 A 0.86276531,0.86276531 0 0 0 6.6137408,0.77102867 Z" />
    <path
       id="path2261"
       style="color:#000000;fill:#000000;stroke-width:1.58751;stroke-linejoin:round;-inkscape-stroke:none"
       d="m 18.86781,1.3237185 a 0.82126219,0.82126219 0 0 0 -0.820108,0.8217108 l -0.0015,8.9393777 a 0.82126219,0.82126219 0 0 0 0.82171,0.820641 h 8.939914 a 0.82126219,0.82126219 0 0 0 0.821689,-0.819572 V 2.1454293 A 0.82126219,0.82126219 0 0 0 27.808339,1.3237185 Z" />
    <g
       id="g2011"
       transform="matrix(1.0870087,0,0,1.0870087,-8.1021508,-0.57553245)"
       style="stroke-width:0.919956">
      <path
         id="path2006"
         style="color:#000000;fill:#333333;stroke-width:1.46044;stroke-linejoin:round;-inkscape-stroke:none"
         d="m 92.459989,0.53381755 a 0.79383483,0.79383483 0 0 0 -0.161747,0.0346232 L 89.187321,1.5781982 a 0.79383483,0.79383483 0 0 0 -0.397392,0.2883545 l -1.921846,2.6463501 a 0.79383483,0.79383483 0 0 0 -0.151412,0.4661215 l -5.17e-4,3.2706014 a 0.79383483,0.79383483 0 0 0 0.151929,0.4661214 l 1.922363,2.6468669 a 0.79383483,0.79383483 0 0 0 0.396875,0.288354 l 3.109888,1.009758 a 0.79383483,0.79383483 0 0 0 0.491443,0 l 3.109887,-1.011308 a 0.79383483,0.79383483 0 0 0 0.396875,-0.286287 L 98.217261,8.7167806 A 0.79383483,0.79383483 0 0 0 98.369706,8.2501424 L 98.369189,4.9800578 A 0.79383483,0.79383483 0 0 0 98.217778,4.5118693 L 96.294897,1.8670695 A 0.79383483,0.79383483 0 0 0 95.898022,1.578715 L 92.787101,0.56792399 a 0.79383483,0.79383483 0 0 0 -0.327112,-0.0341064 z" />
      <path
         id="path1999"
         style="color:#000000;fill:#000000;stroke-width:1.46044;stroke-linejoin:round;-inkscape-stroke:none"
         d="m 92.459989,0.53381755 a 0.79383483,0.79383483 0 0 0 -0.161747,0.0346232 L 89.187321,1.5781982 a 0.79383483,0.79383483 0 0 0 -0.397392,0.2883545 l -1.921846,2.6463501 a 0.79383483,0.79383483 0 0 0 -0.151412,0.4661215 l -5.17e-4,3.2706014 a 0.79383483,0.79383483 0 0 0 0.151929,0.4661214 l 1.922363,2.6468669 a 0.79383483,0.79383483 0 0 0 0.396875,0.288354 l 3.109888,1.009758 a 0.79383483,0.79383483 0 0 0 0.491443,0 l 3.109887,-1.011308 a 0.79383483,0.79383483 0 0 0 0.396875,-0.286287 L 98.217261,8.7167806 A 0.79383483,0.79383483 0 0 0 98.369706,8.2501424 L 98.369189,4.9800578 A 0.79383483,0.79383483 0 0 0 98.217778,4.5118693 L 96.294897,1.8670695 A 0.79383483,0.79383483 0 0 0 95.898022,1.578715 L 92.787101,0.56792399 a 0.79383483,0.79383483 0 0 0 -0.327112,-0.0341064 z m 0.0832,0.39170735 a 0.39687499,0.39687499 0 0 1 0.396359,0.396875 v 0.6878133 l 3.808036,2.7657227 0.732772,-0.1824178 a 0.39687601,0.39687601 0 0 1 0.480591,0.291455 0.39687601,0.39687601 0 0 1 -0.288872,0.4800741 l -0.698665,0.1720825 -1.447457,4.4519247 0.45837,0.6867796 a 0.39687601,0.39687601 0 0 1 -0.111104,0.550871 0.39687601,0.39687601 0 0 1 -0.550871,-0.111621 l -0.444934,-0.668176 h -4.668966 l -0.444934,0.668176 a 0.39687601,0.39687601 0 0 1 -0.550871,0.111621 0.39687601,0.39687601 0 0 1 -0.111104,-0.550871 L 89.559391,9.9895711 88.105216,5.5143921 87.425671,5.3671143 A 0.39687499,0.39687499 0 0 1 87.122847,4.8942749 0.39687499,0.39687499 0 0 1 87.59362,4.5919678 l 0.768945,0.1658813 3.783748,-2.7481526 V 1.3223999 a 0.39687499,0.39687499 0 0 1 0.396876,-0.396875 z m -5.16e-4,1.7771525 -3.654041,2.6546183 1.396297,4.2953451 h 4.516004 L 96.196195,5.356779 Z" />
    </g>
    <g
       id="g1993"
       transform="matrix(1.0869578,0,0,1.0869578,-9.0177164,-0.57461908)"
       style="stroke-width:0.919999">
      <path
         id="path1987"
         style="color:#000000;fill:#333333;stroke-width:1.46051;stroke-linejoin:round;-inkscape-stroke:none"
         d="m 109.0781,0.5286499 a 0.79383483,0.79383483 0 0 0 -0.39688,0.10645345 l -4.58266,2.64583335 a 0.79383483,0.79383483 0 0 0 -0.39636,0.6867798 v 5.2932169 a 0.79383483,0.79383483 0 0 0 0.39687,0.6872966 l 4.58267,2.6448 a 0.79383483,0.79383483 0 0 0 0.79323,5.17e-4 l 4.58267,-2.6458338 a 0.79383483,0.79383483 0 0 0 0.39739,-0.6878133 V 3.9692668 A 0.79383483,0.79383483 0 0 0 114.05815,3.2819702 L 109.47549,0.63458659 A 0.79383483,0.79383483 0 0 0 109.0781,0.5286499 Z" />
      <path
         id="path1977"
         style="color:#000000;fill:#000000;stroke-width:1.46051;stroke-linejoin:round;-inkscape-stroke:none"
         d="m 109.0781,0.5286499 a 0.79383483,0.79383483 0 0 0 -0.39688,0.10645345 l -4.58266,2.64583335 a 0.79383483,0.79383483 0 0 0 -0.39636,0.6867798 v 5.2932169 a 0.79383483,0.79383483 0 0 0 0.39687,0.6872966 l 4.58267,2.6448 a 0.79383483,0.79383483 0 0 0 0.79323,5.17e-4 l 4.58267,-2.6458338 a 0.79383483,0.79383483 0 0 0 0.39739,-0.6878133 V 3.9692668 A 0.79383483,0.79383483 0 0 0 114.05815,3.2819702 L 109.47549,0.63458659 A 0.79383483,0.79383483 0 0 0 109.0781,0.5286499 Z m 0,0.396875 a 0.39687499,0.39687499 0 0 1 0.39635,0.396875 v 0.77618 l 4.31705,1.495516 a 0.39691377,0.39691377 0 0 1 0.25994,0.4495849 l -0.86352,4.4844808 0.67128,0.38809 a 0.39687499,0.39687499 0 0 1 0.14676,0.5426026 0.39687499,0.39687499 0 0 1 -0.54312,0.144694 l -0.67128,-0.38809 -3.45301,2.9905148 a 0.39691377,0.39691377 0 0 1 -0.52039,5.17e-4 l -3.45302,-2.9905151 -0.67179,0.3875733 a 0.39687499,0.39687499 0 0 1 -0.54105,-0.144694 0.39687499,0.39687499 0 0 1 0.14469,-0.5426026 l 0.6718,-0.3875732 -0.86352,-4.4849976 a 0.39691377,0.39691377 0 0 1 0.26045,-0.4506185 l 4.31602,-1.4944824 v -0.77618 a 0.39687499,0.39687499 0 0 1 0.39636,-0.396875 z m -0.87644,2.1802287 -3.25148,1.1255127 0.65061,3.3801554 z m 1.75287,0 2.60087,4.5051513 0.65164,-3.3796386 z m -0.87592,0.069246 -2.94039,5.0927124 5.88027,-5.168e-4 z m 2.67891,5.8854289 -5.35885,5.167e-4 2.67994,2.3207888 z" />
      <path
         style="color:#000000;fill:#000000;stroke-width:0.730249;stroke-linecap:round;stroke-linejoin:round;-inkscape-stroke:none"
         d="M 109.07853,1.3229167 V 2.3812504"
         id="path1963" />
    </g>
    <g
       id="g3264"
       transform="matrix(1.0868478,0,0,1.0868478,-3.6902444,-18.762847)"
       style="stroke-width:0.920092">
      <path
         id="path3232"
         style="color:#000000;fill:#333333;stroke-width:1.46066;stroke-linejoin:round;-inkscape-stroke:none"
         d="m 55.466899,17.263546 a 0.79383437,0.79383437 0 0 0 -0.580327,0.254248 l -5.2927,5.687508 a 0.79383437,0.79383437 0 0 0 0.04289,1.122929 l 5.291149,4.896342 a 0.79383437,0.79383437 0 0 0 1.077971,0 l 5.2927,-4.896342 a 0.79383437,0.79383437 0 0 0 0.04134,-1.122929 l -5.29115,-5.687508 a 0.79383437,0.79383437 0 0 0 -0.581876,-0.254248 z" />
      <path
         id="path3225"
         style="color:#000000;fill:#000000;stroke-width:1.46066;stroke-linejoin:round;-inkscape-stroke:none"
         d="m 55.466899,17.263546 a 0.79383437,0.79383437 0 0 0 -0.580327,0.254248 l -5.2927,5.687508 a 0.79383437,0.79383437 0 0 0 0.04289,1.122929 l 5.291149,4.896342 a 0.79383437,0.79383437 0 0 0 1.077971,0 l 5.2927,-4.896342 a 0.79383437,0.79383437 0 0 0 0.04134,-1.122929 l -5.29115,-5.687508 a 0.79383437,0.79383437 0 0 0 -0.581876,-0.254248 z m 0,0.396358 a 0.3969137,0.3969137 0 0 1 0.331762,0.179834 l 3.369304,5.157825 1.673799,0.359668 a 0.3968755,0.3968755 0 0 1 0.304891,0.470772 0.3968755,0.3968755 0 0 1 -0.470772,0.304891 l -1.63866,-0.35295 -3.173966,2.738334 v 2.122351 a 0.3968755,0.3968755 0 0 1 -0.396358,0.396358 0.3968755,0.3968755 0 0 1 -0.396359,-0.396358 v -2.121834 l -3.172933,-2.738851 -1.637626,0.35295 a 0.3968755,0.3968755 0 0 1 -0.472839,-0.304891 0.3968755,0.3968755 0 0 1 0.304891,-0.470772 l 1.676383,-0.360185 3.366203,-5.157308 a 0.3969137,0.3969137 0 0 1 0.33228,-0.179834 z m 0,1.123446 -2.935739,4.493782 2.935739,2.535246 2.937288,-2.535246 z" />
    </g>
    <g
       id="g3221"
       transform="matrix(1.0869409,0,0,1.0869409,-4.2623805,-18.47799)"
       style="stroke-width:0.920013">
      <path
         id="path3216"
         style="color:#000000;fill:#333333;stroke-width:1.46053;stroke-linejoin:round;-inkscape-stroke:none"
         d="m 40.078174,16.999996 a 0.79383437,0.79383437 0 0 0 -0.562757,0.234611 l -3.665926,3.704683 a 0.79383437,0.79383437 0 0 0 -0.212907,0.390674 l -0.915706,4.2323 a 0.79383437,0.79383437 0 0 0 0.378788,0.855762 l 4.58215,2.64635 a 0.79383437,0.79383437 0 0 0 0.794783,0 l 4.582149,-2.64635 a 0.79383437,0.79383437 0 0 0 0.378789,-0.855762 l -0.916224,-4.2323 A 0.79383437,0.79383437 0 0 0 44.308407,20.93929 L 40.64248,17.234607 a 0.79383437,0.79383437 0 0 0 -0.564306,-0.234611 z" />
      <path
         id="path3209"
         style="color:#000000;fill:#000000;stroke-width:1.46053;stroke-linejoin:round;-inkscape-stroke:none"
         d="m 40.078174,16.999996 a 0.79383437,0.79383437 0 0 0 -0.562757,0.234611 l -3.665926,3.704683 a 0.79383437,0.79383437 0 0 0 -0.212907,0.390674 l -0.915706,4.2323 a 0.79383437,0.79383437 0 0 0 0.378788,0.855762 l 4.58215,2.64635 a 0.79383437,0.79383437 0 0 0 0.794783,0 l 4.582149,-2.64635 a 0.79383437,0.79383437 0 0 0 0.378789,-0.855762 l -0.916224,-4.2323 A 0.79383437,0.79383437 0 0 0 44.308407,20.93929 L 40.64248,17.234607 a 0.79383437,0.79383437 0 0 0 -0.564306,-0.234611 z m 5.17e-4,0.396875 a 0.39691377,0.39691377 0 0 1 0.343648,0.197404 l 4.582666,7.938017 a 0.39691377,0.39691377 0 0 1 -0.343648,0.595312 h -9.164299 a 0.39691377,0.39691377 0 0 1 -0.343648,-0.198437 0.39691377,0.39691377 0 0 1 -5.17e-4,-0.397392 l 4.582666,-7.936467 a 0.39691377,0.39691377 0 0 1 0.343132,-0.198437 z m 0,1.190108 -3.894336,6.746875 7.789188,-5.17e-4 z" />
    </g>
    <g
       id="g3260"
       transform="matrix(0.83431227,0,0,0.83431227,12.004899,-13.307741)"
       style="stroke-width:1.19859">
      <path
         id="path3235"
         style="color:#000000;fill:#333333;stroke-width:1.90278;stroke-linejoin:round;-inkscape-stroke:none"
         d="m 73.278731,17.263546 a 0.79383437,0.79383437 0 0 0 -0.580326,0.254248 l -5.2927,5.687508 a 0.79383437,0.79383437 0 0 0 0.04289,1.122929 l 5.29115,4.896342 a 0.79383437,0.79383437 0 0 0 1.07797,0 l 0.732256,-0.677478 1.875337,1.735811 a 0.79383437,0.79383437 0 0 0 1.077971,0 l 5.2927,-4.896342 a 0.79383437,0.79383437 0 0 0 0.04134,-1.122929 l -5.29115,-5.687508 a 0.79383437,0.79383437 0 0 0 -0.581877,-0.254248 0.79383437,0.79383437 0 0 0 -0.580326,0.254248 l -0.769462,0.826823 -1.753898,-1.885156 a 0.79383437,0.79383437 0 0 0 -0.581877,-0.254248 z m -2.377632,7.724593 a 0.79383437,0.79383437 0 0 0 0.129707,0.282153 0.79383437,0.79383437 0 0 1 -0.129707,-0.282153 z" />
      <path
         id="path3237"
         style="color:#000000;fill:#000000;stroke-width:1.90278;stroke-linejoin:round;-inkscape-stroke:none"
         d="m 73.278731,17.263546 a 0.79383437,0.79383437 0 0 0 -0.580326,0.254248 l -5.2927,5.687508 a 0.79383437,0.79383437 0 0 0 0.04289,1.122929 l 5.29115,4.896342 a 0.79383437,0.79383437 0 0 0 1.07797,0 l 0.732256,-0.677478 1.875337,1.735811 a 0.79383437,0.79383437 0 0 0 1.077971,0 l 5.2927,-4.896342 a 0.79383437,0.79383437 0 0 0 0.04134,-1.122929 l -5.29115,-5.687508 a 0.79383437,0.79383437 0 0 0 -0.581877,-0.254248 0.79383437,0.79383437 0 0 0 -0.580326,0.254248 l -0.769462,0.826823 -1.753898,-1.885156 a 0.79383437,0.79383437 0 0 0 -0.581877,-0.254248 z m 0,0.396358 a 0.3969137,0.3969137 0 0 1 0.331763,0.179834 l 1.426786,2.183846 -0.557072,0.597896 -1.201477,-1.83813 -2.935738,4.493782 0.923975,0.797884 -0.1757,0.188619 a 0.79383437,0.79383437 0 0 0 -0.208773,0.52865 l -1.173055,-1.012341 -1.637626,0.35295 a 0.3968755,0.3968755 0 0 1 -0.472839,-0.304891 0.3968755,0.3968755 0 0 1 0.304891,-0.470772 l 1.676383,-0.360185 3.366203,-5.157308 a 0.3969137,0.3969137 0 0 1 0.332279,-0.179834 z m 3.685563,1.058333 a 0.3969137,0.3969137 0 0 1 0.331763,0.179834 l 3.369304,5.157825 1.673799,0.359668 a 0.3968755,0.3968755 0 0 1 0.304891,0.470772 0.3968755,0.3968755 0 0 1 -0.470772,0.304891 l -1.63866,-0.35295 -3.173966,2.738334 v 2.122351 a 0.3968755,0.3968755 0 0 1 -0.396359,0.396359 0.3968755,0.3968755 0 0 1 -0.396358,-0.396359 v -2.121834 l -3.172933,-2.738851 -1.637626,0.35295 a 0.3968755,0.3968755 0 0 1 -0.472839,-0.304891 0.3968755,0.3968755 0 0 1 0.304891,-0.470772 l 1.676383,-0.360185 3.366203,-5.157308 a 0.3969137,0.3969137 0 0 1 0.332279,-0.179834 z m 0,1.123446 -2.935738,4.493782 2.935738,2.535246 2.937289,-2.535246 z m -6.074047,5.067908 a 0.79383437,0.79383437 0 0 0 0.0036,0.02584 0.79383437,0.79383437 0 0 1 -0.0036,-0.02584 z m 0.02687,0.125057 a 0.79383437,0.79383437 0 0 0 0.01654,0.04754 0.79383437,0.79383437 0 0 1 -0.01654,-0.04754 z m 0.04961,0.125573 a 0.79383437,0.79383437 0 0 0 0.03411,0.0584 0.79383437,0.79383437 0 0 1 -0.03411,-0.0584 z m 0.07545,0.12299 a 0.79383437,0.79383437 0 0 0 0.09198,0.103353 0.79383437,0.79383437 0 0 1 -0.09198,-0.103353 z m 1.840198,1.721342 0.792717,0.733289 v 0.902787 a 0.3968755,0.3968755 0 0 1 -0.396359,0.396358 0.3968755,0.3968755 0 0 1 -0.396358,-0.396358 z" />
    </g>
  </g>
</svg>
