<?xml version="1.0" encoding="UTF-8" standalone="no"?>
<!-- Created with Inkscape (http://www.inkscape.org/) -->

<svg
   width="50"
   height="50"
   viewBox="0 0 13.229166 13.229167"
   version="1.1"
   id="svg5"
   inkscape:version="1.2 (dc2aedaf03, 2022-05-15)"
   sodipodi:docname="dice simplified.svg"
   xmlns:inkscape="http://www.inkscape.org/namespaces/inkscape"
   xmlns:sodipodi="http://sodipodi.sourceforge.net/DTD/sodipodi-0.dtd"
   xmlns="http://www.w3.org/2000/svg"
   xmlns:svg="http://www.w3.org/2000/svg">
  <sodipodi:namedview
     id="namedview7"
     pagecolor="#ffffff"
     bordercolor="#000000"
     borderopacity="0.25"
     inkscape:showpageshadow="2"
     inkscape:pageopacity="0.0"
     inkscape:pagecheckerboard="0"
     inkscape:deskcolor="#d1d1d1"
     inkscape:document-units="mm"
     showgrid="false"
     inkscape:zoom="2"
     inkscape:cx="207.25"
     inkscape:cy="14.5"
     inkscape:window-width="1920"
     inkscape:window-height="1009"
     inkscape:window-x="1912"
     inkscape:window-y="-8"
     inkscape:window-maximized="1"
     inkscape:current-layer="layer1" />
  <defs
     id="defs2" />
  <g
     inkscape:label="Layer 1"
     inkscape:groupmode="layer"
     id="layer1">
    <g
       id="g3264"
       transform="matrix(1.0868478,0,0,1.0868478,-53.669881,-18.762847)"
       style="stroke-width:0.920092">
      <path
         id="path3232"
         style="color:#000000;fill:#333333;stroke-width:1.46066;stroke-linejoin:round;-inkscape-stroke:none"
         d="m 55.466899,17.263546 a 0.79383437,0.79383437 0 0 0 -0.580327,0.254248 l -5.2927,5.687508 a 0.79383437,0.79383437 0 0 0 0.04289,1.122929 l 5.291149,4.896342 a 0.79383437,0.79383437 0 0 0 1.077971,0 l 5.2927,-4.896342 a 0.79383437,0.79383437 0 0 0 0.04134,-1.122929 l -5.29115,-5.687508 a 0.79383437,0.79383437 0 0 0 -0.581876,-0.254248 z" />
      <path
         id="path3225"
         style="color:#000000;fill:#000000;stroke-width:1.46066;stroke-linejoin:round;-inkscape-stroke:none"
         d="m 55.466899,17.263546 a 0.79383437,0.79383437 0 0 0 -0.580327,0.254248 l -5.2927,5.687508 a 0.79383437,0.79383437 0 0 0 0.04289,1.122929 l 5.291149,4.896342 a 0.79383437,0.79383437 0 0 0 1.077971,0 l 5.2927,-4.896342 a 0.79383437,0.79383437 0 0 0 0.04134,-1.122929 l -5.29115,-5.687508 a 0.79383437,0.79383437 0 0 0 -0.581876,-0.254248 z m 0,0.396358 a 0.3969137,0.3969137 0 0 1 0.331762,0.179834 l 3.369304,5.157825 1.673799,0.359668 a 0.3968755,0.3968755 0 0 1 0.304891,0.470772 0.3968755,0.3968755 0 0 1 -0.470772,0.304891 l -1.63866,-0.35295 -3.173966,2.738334 v 2.122351 a 0.3968755,0.3968755 0 0 1 -0.396358,0.396358 0.3968755,0.3968755 0 0 1 -0.396359,-0.396358 v -2.121834 l -3.172933,-2.738851 -1.637626,0.35295 a 0.3968755,0.3968755 0 0 1 -0.472839,-0.304891 0.3968755,0.3968755 0 0 1 0.304891,-0.470772 l 1.676383,-0.360185 3.366203,-5.157308 a 0.3969137,0.3969137 0 0 1 0.33228,-0.179834 z m 0,1.123446 -2.935739,4.493782 2.935739,2.535246 2.937288,-2.535246 z" />
    </g>
  </g>
</svg>
