<?xml version="1.0" encoding="UTF-8" standalone="no"?>
<!-- Created with Inkscape (http://www.inkscape.org/) -->

<svg
   width="50"
   height="50"
   viewBox="0 0 13.229166 13.229167"
   version="1.1"
   id="svg5"
   inkscape:version="1.2 (dc2aedaf03, 2022-05-15)"
   sodipodi:docname="dice simplified.svg"
   xmlns:inkscape="http://www.inkscape.org/namespaces/inkscape"
   xmlns:sodipodi="http://sodipodi.sourceforge.net/DTD/sodipodi-0.dtd"
   xmlns="http://www.w3.org/2000/svg"
   xmlns:svg="http://www.w3.org/2000/svg">
  <sodipodi:namedview
     id="namedview7"
     pagecolor="#ffffff"
     bordercolor="#000000"
     borderopacity="0.25"
     inkscape:showpageshadow="2"
     inkscape:pageopacity="0.0"
     inkscape:pagecheckerboard="0"
     inkscape:deskcolor="#d1d1d1"
     inkscape:document-units="mm"
     showgrid="false"
     inkscape:zoom="2"
     inkscape:cx="221.75"
     inkscape:cy="14"
     inkscape:window-width="1920"
     inkscape:window-height="1009"
     inkscape:window-x="1912"
     inkscape:window-y="-8"
     inkscape:window-maximized="1"
     inkscape:current-layer="layer1" />
  <defs
     id="defs2" />
  <g
     inkscape:label="Layer 1"
     inkscape:groupmode="layer"
     id="layer1">
    <g
       id="g2011"
       transform="matrix(1.0870087,0,0,1.0870087,-93.980387,-0.57553245)"
       style="stroke-width:0.919956">
      <path
         id="path2006"
         style="color:#000000;fill:#333333;stroke-width:1.46044;stroke-linejoin:round;-inkscape-stroke:none"
         d="m 92.459989,0.53381755 a 0.79383483,0.79383483 0 0 0 -0.161747,0.0346232 L 89.187321,1.5781982 a 0.79383483,0.79383483 0 0 0 -0.397392,0.2883545 l -1.921846,2.6463501 a 0.79383483,0.79383483 0 0 0 -0.151412,0.4661215 l -5.17e-4,3.2706014 a 0.79383483,0.79383483 0 0 0 0.151929,0.4661214 l 1.922363,2.6468669 a 0.79383483,0.79383483 0 0 0 0.396875,0.288354 l 3.109888,1.009758 a 0.79383483,0.79383483 0 0 0 0.491443,0 l 3.109887,-1.011308 a 0.79383483,0.79383483 0 0 0 0.396875,-0.286287 L 98.217261,8.7167806 A 0.79383483,0.79383483 0 0 0 98.369706,8.2501424 L 98.369189,4.9800578 A 0.79383483,0.79383483 0 0 0 98.217778,4.5118693 L 96.294897,1.8670695 A 0.79383483,0.79383483 0 0 0 95.898022,1.578715 L 92.787101,0.56792399 a 0.79383483,0.79383483 0 0 0 -0.327112,-0.0341064 z" />
      <path
         id="path1999"
         style="color:#000000;fill:#000000;stroke-width:1.46044;stroke-linejoin:round;-inkscape-stroke:none"
         d="m 92.459989,0.53381755 a 0.79383483,0.79383483 0 0 0 -0.161747,0.0346232 L 89.187321,1.5781982 a 0.79383483,0.79383483 0 0 0 -0.397392,0.2883545 l -1.921846,2.6463501 a 0.79383483,0.79383483 0 0 0 -0.151412,0.4661215 l -5.17e-4,3.2706014 a 0.79383483,0.79383483 0 0 0 0.151929,0.4661214 l 1.922363,2.6468669 a 0.79383483,0.79383483 0 0 0 0.396875,0.288354 l 3.109888,1.009758 a 0.79383483,0.79383483 0 0 0 0.491443,0 l 3.109887,-1.011308 a 0.79383483,0.79383483 0 0 0 0.396875,-0.286287 L 98.217261,8.7167806 A 0.79383483,0.79383483 0 0 0 98.369706,8.2501424 L 98.369189,4.9800578 A 0.79383483,0.79383483 0 0 0 98.217778,4.5118693 L 96.294897,1.8670695 A 0.79383483,0.79383483 0 0 0 95.898022,1.578715 L 92.787101,0.56792399 a 0.79383483,0.79383483 0 0 0 -0.327112,-0.0341064 z m 0.0832,0.39170735 a 0.39687499,0.39687499 0 0 1 0.396359,0.396875 v 0.6878133 l 3.808036,2.7657227 0.732772,-0.1824178 a 0.39687601,0.39687601 0 0 1 0.480591,0.291455 0.39687601,0.39687601 0 0 1 -0.288872,0.4800741 l -0.698665,0.1720825 -1.447457,4.4519247 0.45837,0.6867796 a 0.39687601,0.39687601 0 0 1 -0.111104,0.550871 0.39687601,0.39687601 0 0 1 -0.550871,-0.111621 l -0.444934,-0.668176 h -4.668966 l -0.444934,0.668176 a 0.39687601,0.39687601 0 0 1 -0.550871,0.111621 0.39687601,0.39687601 0 0 1 -0.111104,-0.550871 L 89.559391,9.9895711 88.105216,5.5143921 87.425671,5.3671143 A 0.39687499,0.39687499 0 0 1 87.122847,4.8942749 0.39687499,0.39687499 0 0 1 87.59362,4.5919678 l 0.768945,0.1658813 3.783748,-2.7481526 V 1.3223999 a 0.39687499,0.39687499 0 0 1 0.396876,-0.396875 z m -5.16e-4,1.7771525 -3.654041,2.6546183 1.396297,4.2953451 h 4.516004 L 96.196195,5.356779 Z" />
    </g>
  </g>
</svg>
