<?xml version="1.0" encoding="UTF-8" standalone="no"?>
<!-- Created with Inkscape (http://www.inkscape.org/) -->

<svg
   width="50"
   height="50"
   viewBox="0 0 13.229166 13.229167"
   version="1.1"
   id="svg5"
   inkscape:version="1.2 (dc2aedaf03, 2022-05-15)"
   sodipodi:docname="dice simplified.svg"
   xmlns:inkscape="http://www.inkscape.org/namespaces/inkscape"
   xmlns:sodipodi="http://sodipodi.sourceforge.net/DTD/sodipodi-0.dtd"
   xmlns="http://www.w3.org/2000/svg"
   xmlns:svg="http://www.w3.org/2000/svg">
  <sodipodi:namedview
     id="namedview7"
     pagecolor="#ffffff"
     bordercolor="#000000"
     borderopacity="0.25"
     inkscape:showpageshadow="2"
     inkscape:pageopacity="0.0"
     inkscape:pagecheckerboard="0"
     inkscape:deskcolor="#d1d1d1"
     inkscape:document-units="mm"
     showgrid="false"
     inkscape:zoom="2"
     inkscape:cx="207.25"
     inkscape:cy="14.5"
     inkscape:window-width="1920"
     inkscape:window-height="1009"
     inkscape:window-x="1912"
     inkscape:window-y="-8"
     inkscape:window-maximized="1"
     inkscape:current-layer="layer1" />
  <defs
     id="defs2" />
  <g
     inkscape:label="Layer 1"
     inkscape:groupmode="layer"
     id="layer1">
    <g
       id="g3221"
       transform="matrix(1.0869409,0,0,1.0869409,-36.949146,-18.47799)"
       style="stroke-width:0.920013">
      <path
         id="path3216"
         style="color:#000000;fill:#333333;stroke-width:1.46053;stroke-linejoin:round;-inkscape-stroke:none"
         d="m 40.078174,16.999996 a 0.79383437,0.79383437 0 0 0 -0.562757,0.234611 l -3.665926,3.704683 a 0.79383437,0.79383437 0 0 0 -0.212907,0.390674 l -0.915706,4.2323 a 0.79383437,0.79383437 0 0 0 0.378788,0.855762 l 4.58215,2.64635 a 0.79383437,0.79383437 0 0 0 0.794783,0 l 4.582149,-2.64635 a 0.79383437,0.79383437 0 0 0 0.378789,-0.855762 l -0.916224,-4.2323 A 0.79383437,0.79383437 0 0 0 44.308407,20.93929 L 40.64248,17.234607 a 0.79383437,0.79383437 0 0 0 -0.564306,-0.234611 z" />
      <path
         id="path3209"
         style="color:#000000;fill:#000000;stroke-width:1.46053;stroke-linejoin:round;-inkscape-stroke:none"
         d="m 40.078174,16.999996 a 0.79383437,0.79383437 0 0 0 -0.562757,0.234611 l -3.665926,3.704683 a 0.79383437,0.79383437 0 0 0 -0.212907,0.390674 l -0.915706,4.2323 a 0.79383437,0.79383437 0 0 0 0.378788,0.855762 l 4.58215,2.64635 a 0.79383437,0.79383437 0 0 0 0.794783,0 l 4.582149,-2.64635 a 0.79383437,0.79383437 0 0 0 0.378789,-0.855762 l -0.916224,-4.2323 A 0.79383437,0.79383437 0 0 0 44.308407,20.93929 L 40.64248,17.234607 a 0.79383437,0.79383437 0 0 0 -0.564306,-0.234611 z m 5.17e-4,0.396875 a 0.39691377,0.39691377 0 0 1 0.343648,0.197404 l 4.582666,7.938017 a 0.39691377,0.39691377 0 0 1 -0.343648,0.595312 h -9.164299 a 0.39691377,0.39691377 0 0 1 -0.343648,-0.198437 0.39691377,0.39691377 0 0 1 -5.17e-4,-0.397392 l 4.582666,-7.936467 a 0.39691377,0.39691377 0 0 1 0.343132,-0.198437 z m 0,1.190108 -3.894336,6.746875 7.789188,-5.17e-4 z" />
    </g>
  </g>
</svg>
